<svg height="511pt" viewBox="0 -7 511.99973 511" width="511pt" xmlns="http://www.w3.org/2000/svg"><path d="m511.476562 276.050781c3.824219-34.488281-14.042968-82.558593-30.640624-107.4375-8.792969-13.179687-18.433594-24.941406-26.9375-35.320312-9.855469-12.03125-22.125-27.003907-21.589844-32.386719 1.609375-16.199219 1.042968-25.875-1.890625-32.359375-4.171875-9.210937-12.328125-10.222656-15.808594-10.65625-.261719-.03125-.566406-.070313-.851563-.109375-.4375-1.253906-1.1875-4.441406-1.1875-11.519531 0-21.316407-6.757812-37.082031-18.535156-43.257813-7.179687-3.761718-15.429687-3.261718-22.074218 1.332032-10.117188 7-14.824219 22.046874-12.585938 40.246093.863281 7.027344-.640625 12.035157-2.226562 17.34375-1.738282 5.800781-3.710938 12.375-1.59375 20.085938 1.671874 6.097656-1.816407 12.714843-4.691407 15.910156-6.097656-5.207031-17.332031-14.714844-19.386719-15.859375-2.117187-1.175781-4.519531-2.183594-7.054687-3.105469-.078125-.03125-.15625-.0625-.238281-.089843-2.683594-.96875-5.503906-1.835938-8.28125-2.691407-3.015625-.925781-7.695313-2.367187-10.144532-3.503906-.320312-5.949219 4.609376-12.414063 7.808594-15.945313 5.011719-5.535156 6.425782-12.246093 3.886719-18.417968-3.539063-8.59375-14.4375-15.074219-34.304687-20.386719-13.214844-3.535156-27.011719-5.597656-32.171876-5.878906-15.332031-.828125-23.191406 6.492187-28.390624 11.335937-1.425782 1.328125-2.65625 2.472656-3.847657 3.324219-16.210937 11.546875-24.4375 18.203125-19.453125 31.710937.5625 1.519532 1.070313 2.90625.964844 5.234376-4.144531 1.347656-5.664062 1.015624-5.867188.960937-.550781-.15625-1.824218-1.769531-2.847656-3.0625-3.722656-4.71875-9.953125-12.625-24.375-12.054687-16.398437.644531-25.371094 14.453124-31.925781 24.535156-1.707031 2.625-4.128906 6.347656-5.78125 8.128906-12.644531-5.648438-22.359375-.214844-26.941406 6.394531-6.3125 9.105469-5.148438 21.824219 2.648437 28.957031.867188.792969.859375 1.113282.855469 1.238282-.035156 1.730468-2.394531 6.585937-11 13.808594-4.234375 3.546874-4.785156 9.855468-1.234375 14.089843 3.550781 4.230469 9.859375 4.785157 14.089844 1.234375 12.011718-10.074218 17.949218-19.464844 18.148437-28.703125.132813-6.222656-2.410156-11.902343-7.335937-16.40625-.429688-.558593-.195313-2.417969.351562-2.933593.304688-.035157 1.28125.0625 2.894532.890624 6.808593 3.472657 14.203124 2.335938 20.285156-3.121093 3.722656-3.339844 6.671875-7.875 9.792968-12.675781 5.789063-8.90625 10.320313-15.226563 15.9375-15.449219 4.234376-.164063 5.011719.8125 7.890626 4.460937 3.824218 4.839844 8.464843 9.582032 16.320312 10.523438l4.9375 209.882812c-.273438.191406-.546875.382813-.816406.574219-6.460938 4.53125-13.789063 9.671875-30.792969 11.152344-17.691406 1.539062-21.785156 14.421875-23.988281 21.34375-.511719 1.613281-1.269532 4.003906-1.828125 4.785156-.792969.21875-5.234375.910156-19.527344-4.984375-13.980469-5.769531-21.855469 3.839844-26.089844 9.003906-4.582031 5.59375-8.199219 10.011719-19.25 9.632813-15.53125-.527344-16.21875-5.148438-16.671875-8.210938-.34375-2.308593.144532-5.320312.714844-8.8125 1.042969-6.417969 2.339844-14.40625-.488281-23.886719-2.320313-7.785156-7-15.617187-11.949219-23.902343-4.234375-7.085938-8.609375-14.410157-11.078125-21.199219-19.050781-52.441406-21.285156-67.089844-2.113281-77.976562 4.804687-2.730469 6.488281-8.835938 3.757812-13.640626-2.726562-4.800781-8.832031-6.484374-13.636718-3.757812-36.425782 20.6875-23.3554692 56.664062-6.808594 102.207031 3.117187 8.582031 7.992187 16.738281 12.703125 24.625 4.292969 7.1875 8.347656 13.972657 9.957031 19.363281 1.515625 5.082032.769531 9.660157-.089844 14.960938-.765625 4.707031-1.558594 9.574219-.757812 14.960938 2.382812 16.039062 14.421875 24.535156 35.78125 25.265624 20.917968.699219 29.992187-10.34375 35.40625-16.949218.894531-1.09375 2.046875-2.5 2.824218-3.253906.050782.015624.105469.039062.160157.0625 16.941406 6.988281 27.625 8.359374 35.730469 4.582031 8.183593-3.8125 10.671874-11.632813 12.320312-16.8125 2.085938-6.566407 2.585938-7.125 6.660156-7.480469 22.355469-1.945312 32.867188-9.320312 40.542969-14.707031 1.824219-1.277344 3.214844-2.234375 4.40625-2.929688.015625-.011719.035156-.019531.050781-.03125 2.386719-1.386719 3.964844-1.699219 6.550782-1.316406 6.699218.996094 18.332031 6.980469 35.558593 18.292969 9.652344 6.339844 11.601563 11.730468 13.859375 17.976562 4.027344 11.128906 9.179688 20.617188 31.535156 23.972656 6.304688.945313 10.238282 1.847657 11.691407 2.683594.34375.199219.785156.90625 2.023437 3.082032 2.832032 4.96875 7.574219 13.289062 21.683594 25.980468 17.078125 15.355469 28.433594 12.820313 38.15625 7.792969.667969-.34375 1.515625-.785156 2.097656-1.035156.097656.066406.207032.144531.335938.242187 8.792968 6.65625 16.460937 8.941406 22.964844 8.9375 9.863281 0 17.042968-5.25 21.390624-8.429687 1.167969-.851563 2.714844-1.984375 3.558594-2.425781 21.019532.660156 27.300782-9.175782 29.34375-18.144532.25-.78125.40625-1.589844.457032-2.417968.394531-2.519532.515624-4.882813.609374-6.808594.371094-7.4375.851563-9.527344 3.769532-11.15625 12.109375-6.761719 18.839844-19.003906 25.351562-30.84375 1.285156-2.332032 2.609375-4.746094 3.96875-7.105469 2.351563-4.085937 4.988282-8.296875 7.53125-12.367187 6.164063-9.847657 11.984375-19.152344 14.519532-27.535157.996093-3.292969 1.707031-6.792969 2.171874-10.453125.058594-.351562.105469-.710937.125-1.074218.003907-.042969 0-.085938 0-.128907zm-292.660156-202.644531c2.617188-10.171875 1.242188-16.246094-.449218-21.050781 1.496093-1.457031 4.777343-4.226563 11.980468-9.359375 2.261719-1.609375 4.183594-3.398438 5.875-4.980469 4.40625-4.105469 6.828125-6.367187 13.671875-5.992187 3.320313.179687 14.851563 1.820312 26.46875 4.800781 12.734375 3.265625 18.542969 6.289062 21.042969 7.992187-10.070312 11.769532-13.734375 23.910156-10.59375 35.214844 2.464844 8.886719 12.542969 11.984375 23.210938 15.269531.230468.066407.460937.140625.691406.210938l-3.933594 118.851562-91.578125-.914062-3.128906-132.914063c.363281-.15625.722656-.300781 1.097656-.464844 2.800781-1.242187 4.882813-3.695312 5.644531-6.664062zm83.878906 274.070312c-12.386718-1.859374-13.222656-4.160156-15.691406-10.996093-2.734375-7.550781-6.476562-17.894531-21.691406-27.886719-20.53125-13.484375-33.570312-19.871094-43.601562-21.359375-1.6875-.25-3.273438-.355469-4.785157-.351563l-1.253906-53.425781 125.441406 1.25-6.542969 134.417969c-1.664062-2.351562-2.78125-4.300781-3.75-6.003906-5.511718-9.675782-9.871093-12.90625-28.125-15.644532zm121.042969 36.597657c-6.492187-.28125-11.472656 3.367187-15.476562 6.292969-6.582031 4.8125-10.207031 7.464843-20.472657-.308594-10.421874-7.894532-19.386718-3.257813-23.695312-1.027344-2.484375 1.28125-3.613281 1.800781-4.824219 1.691406-.773437-.0625-2.5625-.476562-5.601562-2.5l2.203125-45.25c1.203125 1.175782 2.480468 2.503906 3.875 3.972656 7.734375 8.132813 18.308594 19.273438 37.199218 18.613282 15.117188-.523438 29.355469 10.503906 35.105469 17.835937-1.207031.402344-3.660156.878907-8.3125.679688zm53.964844-79.4375c-2.644531 4.222656-5.375 8.589843-7.910156 12.996093-1.457031 2.527344-2.832031 5.027344-4.164063 7.445313-5.621094 10.226563-10.476562 19.054687-17.574218 23.019531-5.808594 3.242188-9.136719 7.585938-11.085938 12.078125-10.644531-8.476562-25.203125-15.15625-40.722656-14.609375-9.410156.328125-14.488282-4.5-22.003906-12.402344-4.796876-5.050781-10.066407-10.5625-17.226563-13.707031l2.066406-42.394531 25.921875 1.554688c.207032.011718.40625.015624.609375.015624 5.25 0 9.65625-4.089843 9.976563-9.402343.332031-5.511719-3.871094-10.25-9.386719-10.582031l-26.148437-1.566407 1.546874-31.785156c.132813-2.71875-.847656-5.371094-2.714843-7.347656-1.863281-1.980469-4.457031-3.113281-7.175781-3.140625l-24.921876-.25 3.566407-107.753906c4.910156 4.117187 10.03125 8.460937 10.902343 9.222656 3.710938 3.386718 10.339844 5.332031 17.945313.734375 9.578125-5.789063 20.339844-22.925781 15.640625-40.042969-.566406-2.078125.113281-4.53125 1.464844-9.050781 1.816406-6.050781 4.296875-14.335938 2.921875-25.523438-1.660157-13.496093 1.964843-19.867187 4.109375-21.355469.519531-.359374.753906-.40625 1.40625-.0625 2.707031 1.414063 7.820312 8.578126 7.820312 25.539063 0 11.570313 1.648438 18.980469 5.347656 24.023437 4.585938 6.261719 10.859376 7.039063 14.230469 7.457032.121094.015625.246094.03125.378907.046875.511718 2.046875 1.222656 7.578125-.121094 21.136719-1.355469 13.628906 10.128906 27.644531 26.023437 47.042968 8.214844 10.023438 17.519531 21.378906 25.769531 33.742188 12.992188 19.476562 27.351563 57.472656 27.8125 85.28125l-25.929687-1.554688c-5.515625-.324218-10.253906 3.867188-10.585937 9.382813-.328126 5.515625 3.875 10.253906 9.386718 10.582031l24.066406 1.445312c-2.363281 5.582032-6.859374 12.78125-11.242187 19.785157zm0 0"/><path d="m432.359375 434.1875c-5.417969-3.707031-11.445313-2.488281-16.285156-1.507812-3.023438.613281-6.144531 1.246093-9.367188 1.011718-1.929687-.140625-4-.359375-6.003906-.574218-10.230469-1.089844-20.816406-2.21875-27.128906 5.550781-3.863281 4.75-4.527344 11.179687-1.976563 19.101562.96875 3.003907 1.632813 5.78125 2.273438 8.472657 2.207031 9.238281 4.492187 18.792968 17.585937 28.230468 3.421875 2.464844 7.546875 3.726563 12.011719 3.726563 2.285156 0 4.660156-.332031 7.078125-1 9.164063-2.53125 17.308594-9.324219 20.75-17.300781.902344-2.097657 1.785156-3.957032 2.636719-5.753907 3.894531-8.210937 7.253906-15.304687 4.898437-28.96875-.851562-4.9375-3.027343-8.632812-6.472656-10.988281zm-16.503906 31.386719c-.882813 1.867187-1.882813 3.980469-2.929688 6.402343-1.640625 3.808594-7.949219 6.703126-9.882812 6.1875-6.957031-5.046874-7.769531-8.4375-9.714844-16.570312-.648437-2.730469-1.382813-5.796875-2.460937-9.242188 2.386718.089844 5.414062.410157 7.71875.65625 2.167968.230469 4.40625.472657 6.671874.636719 5.71875.414063 10.644532-.519531 14.324219-1.265625.265625 4.78125-1.054687 7.5625-3.726562 13.195313zm0 0"/><path d="m66.359375 170.824219c1.117187 0 2.253906-.1875 3.363281-.585938 5.203125-1.855469 7.914063-7.578125 6.058594-12.78125-1.859375-5.203125-7.582031-7.914062-12.785156-6.054687h-.007813c-5.203125 1.859375-7.910156 7.582031-6.050781 12.78125 1.460938 4.089844 5.3125 6.640625 9.421875 6.640625zm0 0"/><path d="m426.210938 261.046875h-.007813c-5.515625-.367187-10.273437 3.804687-10.640625 9.316406s3.804688 10.277344 9.316406 10.644531c.226563.015626.453125.023438.675782.023438 5.222656 0 9.617187-4.050781 9.972656-9.335938.363281-5.515624-3.804688-10.28125-9.316406-10.648437zm0 0"/></svg>