<svg xmlns="http://www.w3.org/2000/svg" width="21" height="21" viewBox="0 0 21 21">
  <g id="bedroom" transform="translate(-151 138)">
    <rect id="Rectangle_51" data-name="Rectangle 51" width="21" height="21" transform="translate(151 -138)" fill="none"/>
    <g id="bed" transform="translate(151 -168)">
      <g id="Group_26" data-name="Group 26" transform="translate(0 32)">
        <g id="Group_25" data-name="Group 25" transform="translate(0 0)">
          <path id="Path_6" data-name="Path 6" d="M19.856,42.1h-.337v-1.01a1.683,1.683,0,0,0-1.01-1.54V34.356a.337.337,0,0,0-.2-.308,1.332,1.332,0,0,0,.2-.7,1.346,1.346,0,0,0-2.692,0,1.332,1.332,0,0,0,.187.673H4.188a1.332,1.332,0,0,0,.187-.673,1.346,1.346,0,0,0-2.692,0,1.332,1.332,0,0,0,.2.7.337.337,0,0,0-.2.308v5.191a1.683,1.683,0,0,0-1.01,1.54V42.1H.337A.337.337,0,0,0,0,42.433v4.712a.337.337,0,0,0,.337.337H.673v1.683a.337.337,0,0,0,.337.337H2.356a.337.337,0,0,0,.337-.337V47.481H17.5v1.683a.337.337,0,0,0,.337.337h1.346a.337.337,0,0,0,.337-.337V47.481h.337a.337.337,0,0,0,.337-.337V42.433A.337.337,0,0,0,19.856,42.1Zm-2.692-9.423a.673.673,0,1,1-.673.673A.673.673,0,0,1,17.163,32.673Zm-14.135,0a.673.673,0,1,1-.673.673A.673.673,0,0,1,3.029,32.673Zm-.673,2.019H17.837V39.4H16.482a1.665,1.665,0,0,0,.345-1.01v-.673a1.685,1.685,0,0,0-1.683-1.683H12.452a1.685,1.685,0,0,0-1.683,1.683v.673a1.665,1.665,0,0,0,.345,1.01H9.078a1.665,1.665,0,0,0,.345-1.01v-.673A1.685,1.685,0,0,0,7.74,36.038H5.048a1.685,1.685,0,0,0-1.683,1.683v.673a1.665,1.665,0,0,0,.345,1.01H2.356Zm13.8,3.029v.673a1.01,1.01,0,0,1-1.01,1.01H12.452a1.01,1.01,0,0,1-1.01-1.01v-.673a1.01,1.01,0,0,1,1.01-1.01h2.692A1.01,1.01,0,0,1,16.154,37.721Zm-7.4,0v.673A1.01,1.01,0,0,1,7.74,39.4H5.048a1.01,1.01,0,0,1-1.01-1.01v-.673a1.01,1.01,0,0,1,1.01-1.01H7.74A1.01,1.01,0,0,1,8.75,37.721Zm-7.4,3.365a1.01,1.01,0,0,1,1.01-1.01H17.837a1.01,1.01,0,0,1,1.01,1.01V42.1H1.346Zm.673,7.74H1.346V47.481h.673Zm16.827,0h-.673V47.481h.673Zm.673-2.019H.673V42.769H19.519Z" transform="translate(0 -32)" fill="#707070"/>
        </g>
      </g>
      <g id="Group_28" data-name="Group 28" transform="translate(1.346 45.462)">
        <g id="Group_27" data-name="Group 27" transform="translate(0 0)">
          <path id="Path_7" data-name="Path 7" d="M33.683,352H32.337a.337.337,0,0,0,0,.673h1.346a.337.337,0,0,0,0-.673Z" transform="translate(-32 -352)" fill="#707070"/>
        </g>
      </g>
      <g id="Group_30" data-name="Group 30" transform="translate(4.038 45.462)">
        <g id="Group_29" data-name="Group 29" transform="translate(0 0)">
          <path id="Path_8" data-name="Path 8" d="M110.471,352H96.337a.337.337,0,0,0,0,.673h14.135a.337.337,0,0,0,0-.673Z" transform="translate(-96 -352)" fill="#707070"/>
        </g>
      </g>
    </g>
  </g>
</svg>
