<svg xmlns="http://www.w3.org/2000/svg" width="44" height="44" viewBox="0 0 44 44">
  <g id="choice" transform="translate(-159 203)">
    <rect id="Rectangle_50" data-name="Rectangle 50" width="44" height="44" transform="translate(159 -203)" fill="none"/>
    <g id="house" transform="translate(161 -220.461)">
      <g id="Group_52" data-name="Group 52" transform="translate(0 21.461)">
        <path style="fill:#fff;" id="Path_25" data-name="Path 25" d="M38.876,44.214a2.429,2.429,0,0,0-3.354-.649l-5.015,3.356-.015-10.446,1.742,1.632a1.983,1.983,0,0,0,1.361.538h0a2,2,0,0,0,1.45-.63,1.991,1.991,0,0,0-.092-2.814l-3.3-3.094a.561.561,0,0,0-.767.819l3.3,3.094a.869.869,0,0,1-.593,1.5h0A.865.865,0,0,1,33,37.289h0L19.887,25a.561.561,0,0,0-.768,0L6.038,37.327a.869.869,0,0,1-1.192-1.265L18.9,22.818a.87.87,0,0,1,1.19,0l8.225,7.7a.561.561,0,0,0,.767-.819L20.862,22a1.994,1.994,0,0,0-2.726,0l-4.5,4.239v-.756a.892.892,0,0,0-.892-.891h0l-3.219,0a.892.892,0,0,0-.891.894l.009,5.456-4.562,4.3a1.991,1.991,0,0,0,1.306,3.439h.061a1.976,1.976,0,0,0,1.364-.542l1.738-1.637.007,4.934a11.819,11.819,0,0,0-1.7-.125H5.89v-.336a2.05,2.05,0,0,0-2.048-2.048H2.048A2.05,2.05,0,0,0,0,40.978v8.789a.561.561,0,1,0,1.122,0V40.978a.927.927,0,0,1,.926-.926H3.842a.927.927,0,0,1,.926.926V54.26a.927.927,0,0,1-.926.926H2.048a.927.927,0,0,1-.926-.926v-.981a.561.561,0,1,0-1.122,0v.981a2.05,2.05,0,0,0,2.048,2.048H3.842A2.05,2.05,0,0,0,5.89,54.26v-.076l8.214,3.11.046.015a3.917,3.917,0,0,0,1.066.151,3.631,3.631,0,0,0,.567-.044l12.071-1.74h.008a5.909,5.909,0,0,0,2.8-1.254l.021-.018,7.8-7.014A2.429,2.429,0,0,0,38.876,44.214Zm-26.364-18.5,0,1.58-2.756,2.6L9.752,25.72Zm6.992.466,9.865,9.241.017,12.248L27.8,48.734l-1.682-.094-.044-.447a3.552,3.552,0,0,0-2.853-3.141l-.01-7.287a1.016,1.016,0,0,0-1.015-1.014h0l-5.346.008a1.015,1.015,0,0,0-1.014,1.016l.009,6.353a10.659,10.659,0,0,1-3.015-1.195q-.177-.1-.357-.2l-.142-.074c-.073-.038-.146-.077-.22-.113-.059-.029-.118-.057-.178-.085l-.189-.089-.194-.085-.178-.076-.2-.08-.179-.069-.2-.072-.189-.065-.193-.063L10.2,41.8l-.179-.052c-.078-.022-.156-.042-.235-.062l-.11-.029L9.666,35.45ZM22.1,44.912l-4.691-.54-.442-.051-.009-6.44,5.132-.007Zm15.637,1.641L29.943,53.56a4.786,4.786,0,0,1-2.253,1.007L15.625,56.306h-.016a2.674,2.674,0,0,1-1.132-.072L5.89,52.984V42.436h.96a10.71,10.71,0,0,1,2.419.278l.088.021c.1.023.194.048.29.074l.025.007q.145.04.289.083l.052.016q.153.047.3.1l.031.011q.316.109.625.238l.034.014q.154.065.306.134l.008,0q.147.067.292.14l.034.017q.142.071.281.146l.053.029c.094.051.187.1.28.157a11.782,11.782,0,0,0,4.319,1.5l.014,0,6.284.723.1.017a2.432,2.432,0,0,1,1.9,1.748,2.465,2.465,0,0,1,.076.408l.025.251L13.2,47.523a.561.561,0,1,0-.1,1.117l12.451,1.091h.018l2.348.132h.031l.033,0,.037,0c.017,0,.033-.006.05-.009l.035-.008a.547.547,0,0,0,.053-.019l.028-.011a.554.554,0,0,0,.076-.042l1.993-1.334h0l5.887-3.94a1.3,1.3,0,0,1,1.588,2.056Z" transform="translate(0 -21.461)"/>
      </g>
    </g>
  </g>
</svg>
