<svg xmlns="http://www.w3.org/2000/svg" xmlns:xlink="http://www.w3.org/1999/xlink" viewBox="0 0 237.43 230.43">
  <defs>
    <style>
      .cls-1, .cls-2, .cls-20, .cls-29, .cls-9 {
        fill: none;
      }

      .cls-2, .cls-9 {
        stroke: #e9f2f4;
      }

      .cls-2, .cls-20, .cls-29, .cls-9 {
        stroke-miterlimit: 10;
      }

      .cls-2, .cls-20 {
        stroke-width: 0.25px;
      }

      .cls-3 {
        fill: #171747;
      }

      .cls-4 {
        fill: #fff;
      }

      .cls-5 {
        fill: #e9f2f4;
      }

      .cls-6 {
        clip-path: url(#clip-path);
      }

      .cls-7 {
        fill: #f15a27;
      }

      .cls-8 {
        fill: #52e6c6;
      }

      .cls-10 {
        clip-path: url(#clip-path-2);
      }

      .cls-11 {
        fill: #c7c7c7;
      }

      .cls-12 {
        fill: #482c3b;
      }

      .cls-13 {
        fill: #a6aeba;
      }

      .cls-14 {
        fill: #d2dceb;
      }

      .cls-15 {
        fill: #ff8a95;
      }

      .cls-16 {
        fill: #f74455;
      }

      .cls-17 {
        fill: #fec4ad;
      }

      .cls-18 {
        fill: #133a50;
      }

      .cls-19 {
        fill: #ff5e69;
      }

      .cls-20 {
        stroke: #482c3b;
      }

      .cls-21 {
        fill: #508cff;
      }

      .cls-22 {
        fill: #b56537;
      }

      .cls-23 {
        fill: #e4ddd7;
      }

      .cls-24 {
        fill: #364469;
      }

      .cls-25 {
        fill: #97a3cc;
      }

      .cls-26 {
        fill: url(#linear-gradient);
      }

      .cls-27 {
        fill: #7b2b1a;
      }

      .cls-28 {
        fill: #dbdbdb;
      }

      .cls-29 {
        stroke: #99e6cf;
      }

      .cls-30 {
        fill: #99e6cf;
      }
    </style>
    <clipPath id="clip-path">
      <circle class="cls-1" cx="99.65" cy="25.88" r="15.19" transform="translate(58.22 120.13) rotate(-80.83)"/>
    </clipPath>
    <clipPath id="clip-path-2">
      <circle class="cls-1" cx="210.19" cy="65.77" r="13.8" transform="translate(-8.61 90.92) rotate(-23.93)"/>
    </clipPath>
    <linearGradient id="linear-gradient" x1="256.35" y1="21.57" x2="280.64" y2="21.31" gradientTransform="matrix(0.92, -0.32, 0.45, 0.93, -174.26, 161.15)" gradientUnits="userSpaceOnUse">
      <stop offset="0" stop-color="#eef4fb"/>
      <stop offset="0.31" stop-color="#e3edf8"/>
      <stop offset="1" stop-color="#cfe1f3"/>
    </linearGradient>
  </defs>
  <title>loanbanner</title>
  <g id="OBJECTS">
    <g>
      <g>
        <g>
          <line class="cls-2" x1="21.8" y1="35.81" x2="21.8" y2="46.41"/>
          <path class="cls-3" d="M27.11,35.07a5.32,5.32,0,1,1-5.31-5.31A5.32,5.32,0,0,1,27.11,35.07Z"/>
          <line class="cls-2" x1="21.8" y1="18.42" x2="21.8" y2="28.7"/>
          <g>
            <path class="cls-3" d="M27.11,16.79a5.32,5.32,0,1,1-5.31-5.31A5.32,5.32,0,0,1,27.11,16.79Z"/>
            <polygon class="cls-4" points="21.38 19.3 18.92 16.14 21.14 17.07 26.27 12.59 21.38 19.3"/>
          </g>
          <path class="cls-3" d="M27.11,53.71a5.32,5.32,0,1,1-5.31-5.32A5.32,5.32,0,0,1,27.11,53.71Z"/>
          <polygon class="cls-4" points="21.38 37.16 18.92 34 21.14 34.93 26.27 30.45 21.38 37.16"/>
          <polygon class="cls-4" points="21.38 56.01 18.92 52.84 21.14 53.78 26.27 49.29 21.38 56.01"/>
        </g>
        <rect class="cls-3" x="30.26" y="13.15" width="21.73" height="2.93"/>
        <rect class="cls-5" x="30.26" y="17.32" width="38.03" height="8.18"/>
        <rect class="cls-5" x="30.26" y="35.53" width="38.03" height="8.18"/>
        <rect class="cls-5" x="30.26" y="53.96" width="38.03" height="8.18"/>
        <rect class="cls-3" x="30.26" y="31.55" width="21.73" height="2.93"/>
        <rect class="cls-3" x="30.26" y="49.81" width="21.73" height="2.93"/>
      </g>
      <g class="cls-6">
        <circle class="cls-3" cx="99.65" cy="25.88" r="15.19" transform="translate(58.22 120.13) rotate(-80.83)"/>
        <polygon class="cls-7" points="104.74 9.96 99.65 25.88 85.03 11.82 105.74 7.17 104.74 9.96"/>
        <polygon class="cls-3" points="104.74 9.96 99.65 25.88 117 15.2 105.74 7.17 104.74 9.96"/>
        <polygon class="cls-8" points="99.65 41.06 99.65 25.88 117 15.2 118.33 33.26 103.23 43.15 99.65 41.06"/>
      </g>
      <g>
        <line class="cls-9" x1="129.91" y1="11.09" x2="173.27" y2="11.09"/>
        <line class="cls-9" x1="129.91" y1="14.06" x2="173.27" y2="14.06"/>
        <line class="cls-9" x1="129.91" y1="17.04" x2="173.27" y2="17.04"/>
        <line class="cls-9" x1="129.91" y1="20.02" x2="173.27" y2="20.02"/>
        <line class="cls-9" x1="129.91" y1="23" x2="173.27" y2="23"/>
        <line class="cls-9" x1="129.91" y1="25.98" x2="173.27" y2="25.98"/>
        <line class="cls-9" x1="129.91" y1="29.89" x2="173.27" y2="29.89"/>
        <line class="cls-9" x1="129.91" y1="32.8" x2="173.27" y2="32.8"/>
        <line class="cls-9" x1="129.91" y1="35.71" x2="173.27" y2="35.71"/>
        <line class="cls-9" x1="129.91" y1="38.62" x2="173.27" y2="38.62"/>
      </g>
      <g>
        <g>
          <g class="cls-10">
            <circle class="cls-3" cx="210.19" cy="65.77" r="13.8" transform="translate(-8.61 90.92) rotate(-23.93)"/>
            <polygon class="cls-7" points="214.82 51.31 210.19 65.77 196.9 53 215.72 48.77 214.82 51.31"/>
            <polygon class="cls-7" points="214.82 51.31 210.19 65.77 228.15 67.34 221.79 52.93 214.82 51.31"/>
            <polygon class="cls-8" points="210.19 79.58 210.19 65.77 225.64 65.77 227.16 72.49 213.44 81.47 210.19 79.58"/>
          </g>
          <circle class="cls-4" cx="210.19" cy="65.77" r="7.82" transform="translate(97.73 255.14) rotate(-76.67)"/>
        </g>
        <line class="cls-9" x1="201.16" y1="83.84" x2="220.46" y2="83.84"/>
        <line class="cls-9" x1="201.16" y1="88.07" x2="220.46" y2="88.07"/>
        <line class="cls-9" x1="201.16" y1="92.3" x2="220.46" y2="92.3"/>
      </g>
      <g>
        <g>
          <polygon class="cls-11" points="34.28 221.79 36 221.79 50 153.53 46.45 153.53 34.28 221.79"/>
          <polygon class="cls-11" points="166.41 221.79 164.69 221.79 150.69 153.53 154.23 153.53 166.41 221.79"/>
        </g>
        <g>
          <path class="cls-12" d="M32,112.44a4.81,4.81,0,0,0-1.11,2.22,3.4,3.4,0,0,1,1.14-1.56c.71-.44,1.65-.38,2.36-.82a3.83,3.83,0,0,0,1.3-1.9,5.33,5.33,0,0,1-1.81,1.05A3.72,3.72,0,0,0,32,112.44Z"/>
          <g>
            <g>
              <rect class="cls-13" x="38.03" y="188.88" width="2.61" height="25.26" transform="translate(78.67 403.03) rotate(180)"/>
              <rect class="cls-14" x="37.24" y="185.2" width="4.19" height="3.68" transform="translate(78.67 374.08) rotate(180)"/>
              <rect class="cls-14" x="37.75" y="204.42" width="3.16" height="7.88" transform="translate(78.67 416.73) rotate(180)"/>
              <rect class="cls-14" x="37.24" y="212.31" width="4.19" height="3.68" transform="translate(78.67 428.29) rotate(180)"/>
              <rect class="cls-13" x="34.25" y="178.24" width="10.16" height="6.96" transform="translate(78.67 363.44) rotate(180)"/>
              <rect class="cls-13" x="25.67" y="176.16" width="28.34" height="5.21" rx="0.54" transform="translate(79.68 357.53) rotate(180)"/>
              <polygon class="cls-13" points="29.24 219.5 37.24 215.53 37.24 212.76 28.19 218.83 29.24 219.5"/>
              <circle class="cls-13" cx="28.19" cy="220.28" r="1.87"/>
              <circle class="cls-13" cx="39.33" cy="220.28" r="1.87"/>
              <polygon class="cls-13" points="49.43 219.5 41.43 215.53 41.43 212.76 50.48 218.83 49.43 219.5"/>
              <path class="cls-13" d="M52.36,220.28a1.88,1.88,0,1,1-1.88-1.88A1.88,1.88,0,0,1,52.36,220.28Z"/>
              <rect class="cls-13" x="38.83" y="214.15" width="1.02" height="6.11" transform="translate(78.67 434.4) rotate(180)"/>
            </g>
            <path class="cls-15" d="M21,179a2,2,0,0,1-2-1.5c-.68-2.83-1.93-8.1-1.95-21.27A125.89,125.89,0,0,0,12.91,126a3,3,0,0,1,1.45-3.28h0a4.15,4.15,0,0,1,2-.54H41.65S52,140.74,53.4,147.1s3.26,30.8,3.26,30.8Z"/>
            <path class="cls-7" d="M21.78,179.06s-2.36-4.62-2.4-22.82c0-15-3-27.33-3.87-32.1a1.68,1.68,0,0,1,1.66-2H44s10.38,18.57,11.74,24.93S59,177.9,59,177.9Z"/>
            <path class="cls-15" d="M19.41,173.53H45a1.31,1.31,0,0,1,1.31,1.31v4.23a0,0,0,0,1,0,0H19.41a0,0,0,0,1,0,0v-5.54A0,0,0,0,1,19.41,173.53Z" transform="translate(65.69 352.59) rotate(180)"/>
            <path class="cls-16" d="M27.31,173.53H65.1a0,0,0,0,1,0,0v3.9a1.64,1.64,0,0,1-1.64,1.64H27.31a1.64,1.64,0,0,1-1.64-1.64v-2.26A1.64,1.64,0,0,1,27.31,173.53Z" transform="translate(90.77 352.59) rotate(180)"/>
          </g>
          <path class="cls-17" d="M29.47,115.77s3.91-1.24,4.3-2.94c.32-1.38.83-5.67.83-5.67h6.82a32,32,0,0,0,0,5.08c.64,3.08,4.52,4.1,4.52,4.1l.55,9.64L36.44,134.4l-9.69-9.74Z"/>
          <path class="cls-17" d="M45.05,96.65c1.72,2.29,1.37,2.62,1.14,5.78a25.75,25.75,0,0,1-1.36,6.5c-.46,1.19-2.89,6.3-7.2,4.44A13.29,13.29,0,0,1,31.74,108a17,17,0,0,1-.92-5.73c-.05-2.1-.06-4.83,0-6.39C31.1,90.38,41.91,92.46,45.05,96.65Z"/>
          <g>
            <path class="cls-18" d="M56.3,161.64c3.72-.81,5.79.39,8,3.07s1.34,9.13,0,14.48-6.46,41-6.46,41H54.07s-1-14-1.64-24.29S54.05,171,54.05,171l-14.47-9.31S53,162.36,56.3,161.64Z"/>
            <path class="cls-18" d="M56.12,156.48c2.84,2.65,11.2,7.12,9.53,12.65l-11.2,4.75s-11.38-4.13-14.87-12.24l-3.49-8.11,7.5-3Z"/>
            <path class="cls-18" d="M47.94,163.6c2.06,1.49,7.63,3.94,6.51,10.28-.56,3.23-9.67,22.74-14.64,30.93-2.54,4.18-7.05,12.93-7.05,12.93l-4.24,1s3.26-10.61,5.49-20.42,8.72-21.51,8.72-21.51A66.88,66.88,0,0,0,34.37,172c-3.56-1.56-5.48-2.2-.13-7.32S43.93,160.71,47.94,163.6Z"/>
            <path class="cls-17" d="M56.12,133.43a26.36,26.36,0,0,0,2.2,6.41c.89,1.55,19.26,8.32,19.26,8.32H66.85s-10.21-1.34-13.13-5.25a71,71,0,0,1-5.61-9.48Z"/>
            <path class="cls-18" d="M49.54,117.68c1.9.84,3.66,5.64,5.06,9.73a26.43,26.43,0,0,1,1.52,6s-4.91,2.81-7.51,2.11c0,0-2.47-8.88-.77-13.37Z"/>
            <path class="cls-18" d="M40.07,156.8c5.35-.22,10.7-.35,16-.32-2.6-1.69-4.89-2.86-5.39-3.36-1.12-1.12-.74-11,.08-14.13s.77-6.65.18-8.24-1.45-13.07-1.45-13.07l-3.6-1.34s1.1,8.32-7.65,8.32-8.82-8.89-8.82-8.89L23.87,117s-.41,10.84-.2,15.76,2.54,13.44,3.21,17.9c.52,3.46-.44,5.59-1.1,8.14A35.58,35.58,0,0,1,40.07,156.8Z"/>
            <path class="cls-19" d="M33,217c-1.2-.24-1.63.24-2.71,1a4.58,4.58,0,0,1-2.29.72V222h8.37Z"/>
            <path class="cls-19" d="M58.59,217.62s-.13,1.13-1.93,1.64a3.09,3.09,0,0,1-3-1l-.4,3.68,14.25.09Z"/>
          </g>
          <path class="cls-17" d="M58.84,147.31c-1.6-.19-3.14-1.68-9.34-1.76a94.35,94.35,0,0,1-10.48-2A21.93,21.93,0,0,1,33.11,141s-2.27-8.47-3.14-13.85c-2.52-.27-5-.6-7.53-1-.09,6.71,4.66,18.65,6.25,19.84,3.08,2.32,10.32,2.2,12.06,2.23,4,.08,21.19.54,21.19.54S63.26,147.84,58.84,147.31Z"/>
          <path class="cls-18" d="M32,135.6s-2.29-13.41-2.95-14.82c-3.42-7.29-8.12-3.41-7.43,2.24.29,2.4.48,8.61,1.7,14.47A19.17,19.17,0,0,0,32,135.6Z"/>
          <g>
            <polygon class="cls-13" points="55.18 148.7 61.94 148.7 68.7 125.05 63.56 125.05 55.18 148.7"/>
            <polygon class="cls-14" points="57.12 148.7 83.5 148.7 90.26 125.05 63.88 125.05 57.12 148.7"/>
            <rect class="cls-14" x="53.24" y="148.16" width="30.26" height="1.76" transform="translate(136.74 298.09) rotate(180)"/>
            <rect class="cls-13" x="38.11" y="148.16" width="15.13" height="1.76" transform="translate(91.35 298.09) rotate(180)"/>
            <path class="cls-13" d="M71.61,138c-.76,1.81-.23,3.77,1.2,4.37s3.2-.38,4-2.19.22-3.76-1.2-4.36S72.37,136.21,71.61,138Z"/>
          </g>
          <path class="cls-18" d="M25.78,158.81c-1,4.8,1.36,15.27,16.95,18l8.89,3.6A11.72,11.72,0,0,0,54.05,171c-1.12-5.5-7.36-7.6-11.47-14.25,0,0-6.47-2.7-10.62-1.25A18.51,18.51,0,0,0,25.78,158.81Z"/>
          <path class="cls-12" d="M46.38,99.92s-1.87.08-4.18-3.4c0,0,.25,1.58-2,3.7s-4.25,1.54-4.59,2.56a7.76,7.76,0,0,0-.37,2s-.38,0-.74-.56c-.24-.36-.36-1.24-.77-1.51-1-.68-2.78.23-2.22,2.22a4.24,4.24,0,0,0,1.7,2.08c0,3.4,1.36,4.45,1.36,4.45s-2.3,1-3.48.56c-1.68-.69-2.11-1.74-2.05-3.65a4.46,4.46,0,0,1-2.25-1.17c-2.35-2.33.36-9,1.45-9.79,0,0-2.57-3.64.66-6.08s4.54,1.53,4.54,1.53c1.08-.82,5.54-1.1,7.81-.25C47.66,94.94,46.38,99.92,46.38,99.92Z"/>
          <path class="cls-20" d="M42.05,96.49c.21,1.3,0,4.31-3.47,6.68"/>
        </g>
        <g>
          <g>
            <rect class="cls-13" x="184.58" y="188.88" width="2.61" height="25.26"/>
            <rect class="cls-14" x="183.79" y="185.2" width="4.19" height="3.68"/>
            <rect class="cls-14" x="184.3" y="204.42" width="3.16" height="7.88"/>
            <rect class="cls-14" x="183.79" y="212.31" width="4.19" height="3.68"/>
            <rect class="cls-13" x="180.81" y="178.24" width="10.16" height="6.96"/>
            <rect class="cls-13" x="171.21" y="176.16" width="28.34" height="5.21" rx="0.54"/>
            <polygon class="cls-13" points="195.98 219.5 187.98 215.53 187.98 212.76 197.03 218.83 195.98 219.5"/>
            <path class="cls-13" d="M198.91,220.28A1.88,1.88,0,1,1,197,218.4,1.88,1.88,0,0,1,198.91,220.28Z"/>
            <circle class="cls-13" cx="185.89" cy="220.28" r="1.87"/>
            <polygon class="cls-13" points="175.79 219.5 183.79 215.53 183.79 212.76 174.74 218.83 175.79 219.5"/>
            <circle class="cls-13" cx="174.74" cy="220.28" r="1.87"/>
            <rect class="cls-13" x="185.38" y="214.15" width="1.02" height="6.11"/>
          </g>
          <path class="cls-15" d="M204.26,179a2,2,0,0,0,2-1.5c.68-2.83,1.93-8.1,2-21.27,0-14.54,7.65-25.59,8.69-30.25a3,3,0,0,0-1.44-3.28h0a4.15,4.15,0,0,0-2-.54H183.57s-10.39,18.57-11.75,24.93-3.26,30.8-3.26,30.8Z"/>
          <path class="cls-7" d="M203.44,179.06s2.36-4.62,2.4-22.82c0-15,7.61-27.33,8.46-32.1a1.67,1.67,0,0,0-1.65-2H181.19s-10.38,18.57-11.74,24.93-3.27,30.8-3.27,30.8Z"/>
          <g>
            <path class="cls-15" d="M170.67,173.53h35.15a0,0,0,0,1,0,0v4.23a1.31,1.31,0,0,1-1.31,1.31H170.67a0,0,0,0,1,0,0v-5.54A0,0,0,0,1,170.67,173.53Z"/>
            <path class="cls-16" d="M161.76,173.53h11.66a1.64,1.64,0,0,1,1.64,1.64v3.9a0,0,0,0,1,0,0h-13.3a1.64,1.64,0,0,1-1.64-1.64v-2.26A1.64,1.64,0,0,1,161.76,173.53Z"/>
          </g>
        </g>
        <g>
          <path class="cls-17" d="M176.89,116.7c-2.43,2.43-2.59,14.6-5,20.91,0,0-16.78,6.56-24.43,8.49l2.66,2.8s22.73-5.47,25.61-7.39c4.41-2.93,7-14.79,7.39-20.72S179.44,114.17,176.89,116.7Z"/>
          <path class="cls-17" d="M149.28,146.54l-1.87-.44s-3.83-.35-5.06-.53-2.7,1.23-4.37,1.76a15.67,15.67,0,0,0-3.31,1.57H136l2.74.44,2.46-.44a23.67,23.67,0,0,1,4.63,0,20.17,20.17,0,0,0,4.23,0Z"/>
        </g>
        <g>
          <path class="cls-17" d="M165.88,158.8c-5.2,1.73-11.59,4.49-13.46,6.23s-5.55,4.21-2.58,13.77c1.9,6.1,10.17,37,10.17,37l4.19-.75s-1.48-17.92-3-31.33c-.72-6.5-1-8.31-1-8.31l5.63-2.29c7.13-2.94,4.69-15.19,4.69-15.19Z"/>
          <path class="cls-17" d="M154.23,163.17c-1.87,1.74-3.19,1.15-6,10.76-1.79,6.14-8.33,37.09-8.33,37.09l3.91,1.7c5.28-14.8,5.27-14.78,11.44-26.79a53.63,53.63,0,0,0,4.25-11.57l11.41-.68c7.13-2.93,4.69-13.34,4.69-13.34S156.1,161.43,154.23,163.17Z"/>
          <path class="cls-21" d="M197.45,154c0,5,3.62,10.52-.58,16.21-3.79,5.14-26,3.51-26,3.51s3.12-5.42.15-9.52c-1.89-2.62-6.27-5-6.27-5l12.41-4,10-7.74Z"/>
          <path class="cls-22" d="M185,115.6c-.68,2.28-5.43,2.24-8.95-2s-6.05-11.51-2.55-16.64,8.2,4.8,9.79,10.08A37.13,37.13,0,0,1,185,115.6Z"/>
          <path class="cls-17" d="M173.94,96.87c-.95,1.12,0,5.38.12,6,.32,1.23-.3,2.91.05,3.19s.54.06,1.14.2c.06,0,1.71,3.25,2,3.92.44,1,2.83-.78,3.56,0,.52.56.55,1.59.72,2.86l-1.4,5.66,11.43-2.2a55.53,55.53,0,0,1-4.19-7.24c-.85-2.27.22-4.75-.07-7.81s-1.64-7-6-7.37A8.52,8.52,0,0,0,173.94,96.87Z"/>
          <path class="cls-23" d="M177.55,154.45a24.43,24.43,0,0,1,7.65,0c4.75.64,11.8-.69,11.8-.69s-2.89-14.88-2.71-21.63.71-14,.71-14L182.34,116s-3.06,1.09-4.79,6S176.08,148.27,177.55,154.45Z"/>
          <path class="cls-18" d="M181.54,113c-.93.94-4,2.14-4,3.47s-2.4,12.79-2.27,15.18,1,11.51.48,14.31a70.3,70.3,0,0,0-.53,9l2.32-.54s-.67-15.84,0-21.7,4.79-16.65,4.79-16.65l-1.55-.53Z"/>
          <path class="cls-18" d="M186.15,116.1l-3.81-.13s-1.28,5.86-1.28,17.14A182,182,0,0,0,183,155.42a23.31,23.31,0,0,0,6.94,1.27,16.49,16.49,0,0,0,7.05-1.33A144.72,144.72,0,0,1,197,137c.66-9.06,3.08-11.12,2.62-17-.78-9.84-9.68-6.39-9.68-6.39Z"/>
          <path class="cls-21" d="M182.34,116s6.13-2.94,7.06-4.8a6.38,6.38,0,0,1,.54,2.4c-.14.8-6,6.39-6,6.39Z"/>
          <path class="cls-22" d="M187.42,116.66c1.5-7.56-2.52-9.78-6.92-12.48a22.75,22.75,0,0,1-7-7.24s1.71-5.54,6.67-6.67,11.31,2,12.92,9.79c1.13,5.55,2.62,7.51,6.38,10.22,4.54,3.27,5.9,11.6.6,15.61-4.89,3.72-2.06-5.1-3.88-10-.31-.84-4.12,3.42-6.25,4.12S187.18,117.88,187.42,116.66Z"/>
          <path class="cls-21" d="M181.54,113a3.38,3.38,0,0,0,.8,2.94l-2.26,3.19s-.67-2.53,0-3.59S181.54,113,181.54,113Z"/>
          <path class="cls-18" d="M159.72,213.6s.12,1.12,1.93,1.63a3.07,3.07,0,0,0,3-1l.4,3.68L159.32,222h-4.79l2.59-2.88Z"/>
          <path class="cls-18" d="M140.52,208.5a2,2,0,0,0,.71,2.61,3.08,3.08,0,0,0,3.19,0l-.74,3.62-13.6-4.25Z"/>
          <g>
            <path class="cls-17" d="M193.28,117.85c-1.31,3.17-5.17,13.58-7.63,19.9,0,0-17.88,5.73-25.53,7.65l2.66,2.8s21.8-3.34,26.53-5.54,9.34-17.61,10.15-21.65C200.62,115.18,194.7,114.42,193.28,117.85Z"/>
            <path class="cls-17" d="M162,145.84l-1.87-.44s-3.83-.35-5.06-.52-2.7,1.22-4.37,1.75a16.24,16.24,0,0,0-3.31,1.57h1.34l2.74.45,2.46-.45a24.54,24.54,0,0,1,4.63,0,20.17,20.17,0,0,0,4.23,0Z"/>
          </g>
        </g>
        <g>
          <path class="cls-24" d="M91.1,69.61,86.25,80.85l1.24.54,4.86-11.25a.25.25,0,0,0-.14-.33l-.78-.34A.25.25,0,0,0,91.1,69.61Z"/>
          <path class="cls-24" d="M91.13,72.35,90.32,72l1.36-3.16a.44.44,0,0,1,.58-.23h0a.44.44,0,0,1,.23.58Z"/>
        </g>
        <g>
          <path class="cls-17" d="M103.85,96.31s-4.77,13.09-6.51,13c-1.3,0-10-12-11.42-14s-4.12-6.91-4.12-6.91l3.55-1.11S91.45,94.66,93,96s2.22,1.81,2.22,1.81l1.82-5Z"/>
          <path class="cls-24" d="M101.21,82.66c-1.92.51-2.58,2.22-3.41,5.75a69.68,69.68,0,0,1-2,6.85l6.31,2.94s1.14-6.27,1.56-10.23S102.88,82.22,101.21,82.66Z"/>
          <path class="cls-18" d="M127.14,217.5v4.64h-8.91s.33-1.68,4.56-2.45l.62-2.19Z"/>
          <path class="cls-18" d="M108.3,217.5v4.64H99.39s.34-1.68,4.56-2.45l.62-2.19Z"/>
          <path class="cls-18" d="M125.19,124s1.62,14.75,1.68,30.59,1,62.91,1,62.91h-6.4s-6.59-45.48-9-55.67-8.63-37.64-8.63-37.64Z"/>
          <path class="cls-17" d="M115.36,70.44s.41,3.23.75,4.87a13.11,13.11,0,0,0,.87,3,37.47,37.47,0,0,0,4,4.5s-10.61,5.6-13.72,5.6-2-6.26-2-6.26,3.4-2.69,3.91-4a31.25,31.25,0,0,0,.79-5.29Z"/>
          <path class="cls-18" d="M111.28,140.17s-1.2,24.14-1.44,28.89,0,48.41,0,48.41-6,.16-6,0-5.66-46-6.39-57.74-.3-25.6-1.27-27.21,2.62-8.45,2.62-8.45l8.49,2.26Z"/>
          <path class="cls-5" d="M118.78,79.65l10.9,4.71s-2.15,8.82-2.27,12.33S126,127.91,126,127.91s-3.35,5.19-19.45,3.12c-6.22-.79-9.27-3.82-9.27-3.82s1.74-30.52,2.22-34,1.68-10.52,1.68-10.52L106.46,81l2.15,3.2Z"/>
          <polygon class="cls-24" points="118.29 77.75 108.61 84.24 111.27 87.3 118.78 79.65 118.29 77.75"/>
          <polygon class="cls-24" points="108.61 84.24 105.97 86.36 106.46 81.04 107.45 79.65 108.61 84.24"/>
          <g>
            <path class="cls-25" d="M98.4,103.26,89.09,106a2.18,2.18,0,0,1-2.49-1.1L77.53,85.48a1.45,1.45,0,0,1,1-2.07l9.23-2.73c1.69-.16,2.53.16,3,1.06L99.76,101C100.19,101.86,100,102.49,98.4,103.26Z"/>
            <path class="cls-26" d="M97.87,103.46l-9.35,2.7a2.18,2.18,0,0,1-2.5-1.09L76.91,85.6a1.45,1.45,0,0,1,1-2.07l9.28-2.74a2.25,2.25,0,0,1,2.59,1.1l9.17,19.41A1.52,1.52,0,0,1,97.87,103.46Z"/>
          </g>
          <g>
            <path class="cls-17" d="M124.9,98.24s-8.66,14.37-9.81,14.87-16.1-9.23-18.9-11-5.15-3.59-5.5-3.88A15.13,15.13,0,0,1,89.53,95a4.7,4.7,0,0,0,.39-.52l.37.2-.19-1.17.35-.66.34.12.11-1.18.52-.88s1.47,1.66,2.38,2.65a12.91,12.91,0,0,0,2,1.73,13.16,13.16,0,0,1,0-1.9,5.43,5.43,0,0,0-.17-1.4l1.45.87s1.27,4,1.52,4.34a7.35,7.35,0,0,0,4.37,4.11c6.21,2.37,9.65,3.26,9.65,3.26-.24,0,5.65-10.74,5.65-10.74Z"/>
            <path class="cls-24" d="M130.09,89.79c-.82,3.91-6.55,12.45-6.55,12.45l-7-5.26s2.75-5.5,4.29-8.39c1.7-3.19,3.28-7.06,6.29-5.93S130.75,86.65,130.09,89.79Z"/>
          </g>
          <path class="cls-17" d="M103,62.19c-.75.68-2,2-1.89,2.84a32.14,32.14,0,0,0,.66,4.48c.4,1.32,1.17,4.79,1.74,6.31s1.22,3.61,1.68,3.8a14.59,14.59,0,0,0,5.35-1.09c.77-.57,4.87-5.07,4-8.4,0,0,1.07.14,1.73-3.15.17-.86-3.32-3.3-3.86-4.15-1.32-2.07-6.13-.44-7.5-.33A2.94,2.94,0,0,1,103,62.19Z"/>
          <path class="cls-27" d="M101.14,65s.27-1.17,1.34-.92a11.6,11.6,0,0,0,4.75-.33,11.8,11.8,0,0,0,3-1.36,7.26,7.26,0,0,0,1,2.55,4.85,4.85,0,0,1,1.08,2.1c.2.66,1.05.85,1.05.85s.38-1.85,1.21-2c1.65-.26,1.45,2,.77,2.68a13.18,13.18,0,0,1-1.39,1.28,8.92,8.92,0,0,0,.53,1.65,7.81,7.81,0,0,0,1.35,1.65s.43-4.42,1.48-6.44,1-5.75-2-6.54A4.28,4.28,0,0,0,110.55,57c-4,.16-7.14,1.75-8.88,1.58a5.43,5.43,0,0,1-2.27-.53s-.87,2.87.26,4.39A10,10,0,0,1,101.14,65Z"/>
        </g>
        <g>
          <polygon class="cls-13" points="149.79 148.7 146.09 148.7 142.38 125.05 145.2 125.05 149.79 148.7"/>
          <polygon class="cls-14" points="148.73 148.7 134.26 148.7 130.56 125.05 145.02 125.05 148.73 148.7"/>
          <rect class="cls-14" x="134.07" y="148.16" width="15.72" height="1.76"/>
          <rect class="cls-13" x="149.79" y="148.16" width="19.83" height="1.76"/>
          <path class="cls-13" d="M140.79,138c.41,1.81.12,3.77-.66,4.37s-1.76-.38-2.18-2.19-.12-3.76.66-4.36S140.37,136.21,140.79,138Z"/>
        </g>
        <g>
          <rect class="cls-28" x="8.19" y="150.11" width="178.06" height="3.42" transform="translate(194.44 303.64) rotate(180)"/>
          <g>
            <polygon class="cls-28" points="27.19 221.79 28.91 221.79 42.91 153.53 39.36 153.53 27.19 221.79"/>
            <polygon class="cls-28" points="159.32 221.79 157.6 221.79 143.6 153.53 147.14 153.53 159.32 221.79"/>
          </g>
        </g>
      </g>
      <g>
        <rect class="cls-5" x="142.87" y="52.34" width="29.97" height="29.67"/>
        <rect class="cls-4" x="147.36" y="56.84" width="10.5" height="21.2"/>
        <rect class="cls-9" x="142.87" y="46.66" width="29.97" height="5.67"/>
        <path class="cls-8" d="M169.23,60.3a3.73,3.73,0,1,1-3.73-3.73A3.73,3.73,0,0,1,169.23,60.3Z"/>
        <polygon class="cls-4" points="165.21 61.77 163.48 59.55 165.04 60.2 168.64 57.06 165.21 61.77"/>
        <circle class="cls-8" cx="165.5" cy="71.36" r="3.73"/>
        <polygon class="cls-4" points="165.21 72.83 163.48 70.61 165.04 71.26 168.64 68.12 165.21 72.83"/>
      </g>
      <g>
        <rect class="cls-8" x="194.29" y="25.48" width="5.16" height="10.85"/>
        <rect class="cls-8" x="201.85" y="29.55" width="5.16" height="6.78"/>
        <rect class="cls-8" x="209.41" y="26.33" width="5.16" height="10"/>
        <rect class="cls-8" x="216.97" y="18.63" width="5.16" height="17.7"/>
        <g>
          <polyline class="cls-29" points="194.29 21.85 199.45 20.05 204.43 21.85 217.35 11.46"/>
          <polygon class="cls-30" points="219.55 9.69 217.47 13.45 217.19 11.59 215.43 10.91 219.55 9.69"/>
        </g>
        <polyline class="cls-2" points="189.25 40.42 227.24 40.42 227.24 17.29"/>
      </g>
    </g>
  </g>
</svg>
