<?xml version="1.0" encoding="utf-8"?>
<!-- Generator: Adobe Illustrator 17.0.0, SVG Export Plug-In . SVG Version: 6.00 Build 0)  -->
<!DOCTYPE svg PUBLIC "-//W3C//DTD SVG 1.1//EN" "http://www.w3.org/Graphics/SVG/1.1/DTD/svg11.dtd">
<svg version="1.1" id="Layer_1" xmlns="http://www.w3.org/2000/svg" xmlns:xlink="http://www.w3.org/1999/xlink" x="0px" y="0px"
	 width="152.167px" height="61.759px" viewBox="0 0 152.167 61.759" enable-background="new 0 0 152.167 61.759"
	 xml:space="preserve">
<g>
	<text transform="matrix(1 0 0 1 47.9629 50.4846)" fill="#171747" font-family="'PerpetuaTitlingMT-Bold'" font-size="32.2004">INDIA</text>
	<g>
		<text transform="matrix(1 0 0 1 47.9625 61.7586)" font-family="'PerpetuaTitlingMT-Light'" font-size="11.4932">PROPERTY CLINIC</text>
	</g>
	<g>
		<path fill="#F15A27" d="M19.635,35.084c-0.08,0.093-0.125,0.215-0.123,0.341v10.973c-0.724,0.293-1.389,0.729-1.958,1.299
			c-1.112,1.112-1.725,2.593-1.727,4.165c0.001,1.572,0.613,3.051,1.726,4.164c1.113,1.113,2.591,1.724,4.165,1.725
			c3.249,0.001,5.891-2.64,5.89-5.889c0-1.575-0.61-3.053-1.723-4.166c-0.569-0.569-1.233-1.004-1.959-1.297l0.001-3.606
			c-0.001-0.149-0.061-0.287-0.171-0.39l-1.017-0.948l1.017-0.953c0.107-0.101,0.17-0.239,0.169-0.389
			c0.001-0.146-0.06-0.289-0.168-0.388l-1.02-0.952l1.019-0.948c0.107-0.101,0.168-0.242,0.17-0.389
			c-0.001-0.149-0.049-0.276-0.171-0.391l-1.017-0.95l1.017-0.951c0.115-0.103,0.174-0.254,0.17-0.407
			c-0.007-0.137-0.061-0.262-0.156-0.357c-0.014-0.014-0.028-0.027-0.043-0.04L22.051,33c-0.226-0.182-0.556-0.148-0.743,0.074
			L19.635,35.084z M21.717,52.867c0.926,0,1.675,0.749,1.674,1.674c0,0.926-0.749,1.674-1.674,1.674
			c-0.925,0-1.674-0.748-1.674-1.674C20.043,53.616,20.793,52.867,21.717,52.867z M21.047,36.246c0.11,0,0.211,0.046,0.283,0.118
			s0.118,0.173,0.118,0.283l-0.001,9.338c-0.27,0.01-0.536,0.039-0.798,0.087l-0.001-9.426
			C20.648,36.426,20.827,36.246,21.047,36.246z"/>
		<g>
			<g>
				<g>
					<path fill="#171747" d="M22.825,59.126h0.95v-0.293c-0.31,0.09-0.628,0.154-0.95,0.203V59.126z"/>
					<path fill="#171747" d="M19.658,59.126h1.167v-0.06c-0.397-0.048-0.787-0.125-1.167-0.235V59.126z"/>
					<g>
						<g>
							<g>
								<path fill="#171747" d="M23.775,32.345V19.293c-0.315-0.03-0.631-0.056-0.95-0.072V31.6
									c0.055,0.036,0.114,0.065,0.166,0.107L23.775,32.345z"/>
								<path fill="#171747" d="M43.433,40.909c0-10.606-7.605-19.431-17.658-21.332v25.999c0.372,0.245,0.725,0.518,1.05,0.83
									v-21.43h2v24.746c0.182,0.648,0.282,1.323,0.282,2.014c0,0.691-0.099,1.365-0.282,2.012v5.378h1.167v-34.15h2v34.15h1.166
									V37.81h2v20.15c0.399-0.315,0.791-0.64,1.167-0.981V37.81h2v17.085C41.51,51.117,43.433,46.239,43.433,40.909z"/>
								<path fill="#171747" d="M25.775,59.126h1.05v-2.06c-0.328,0.315-0.678,0.599-1.05,0.845V59.126z"/>
								<path fill="#171747" d="M20.825,31.482V19.215c-0.392,0.016-0.781,0.041-1.167,0.077v13.292l0.497-0.597
									C20.34,31.767,20.572,31.601,20.825,31.482z"/>
								<path fill="#171747" d="M16.608,59.126h1.05v-1.215c-0.372-0.245-0.722-0.529-1.05-0.844V59.126z"/>
								<path fill="#171747" d="M14.608,49.731V24.976h2V46.41c0.325-0.313,0.678-0.586,1.05-0.832V19.577
									C7.605,21.479,0,30.304,0,40.909c0,5.329,1.923,10.207,5.108,13.986V37.81h2v19.168c0.376,0.342,0.768,0.666,1.167,0.982
									V37.81h2v21.316h1.167v-34.15h2v34.15h1.166v-5.38c-0.182-0.646-0.281-1.319-0.282-2.009
									C14.327,51.048,14.427,50.376,14.608,49.731z"/>
							</g>
							<path fill="#171747" d="M19.658,10.334h-2v8.099c0.658-0.096,1.324-0.165,2-0.2V10.334z"/>
							<path fill="#171747" d="M22.825,0h-2v18.201c0.675,0,1.341,0.035,2,0.095V0z"/>
							<path fill="#171747" d="M25.775,10.334h-2v8.071c0.677,0.092,1.344,0.216,2,0.369V10.334z"/>
						</g>
					</g>
				</g>
				<g>
					<rect x="0" y="60.626" fill="#171747" width="43.433" height="1"/>
				</g>
			</g>
		</g>
	</g>
</g>
</svg>
