<?xml version="1.0" encoding="utf-8"?>
<!-- Generator: Adobe Illustrator 17.0.0, SVG Export Plug-In . SVG Version: 6.00 Build 0)  -->
<!DOCTYPE svg PUBLIC "-//W3C//DTD SVG 1.1//EN" "http://www.w3.org/Graphics/SVG/1.1/DTD/svg11.dtd">
<svg version="1.1" id="Layer_1" xmlns="http://www.w3.org/2000/svg" xmlns:xlink="http://www.w3.org/1999/xlink" x="0px" y="0px"
	 width="71.562px" height="34px" viewBox="0 0 71.562 34" enable-background="new 0 0 71.562 34" xml:space="preserve">
<g>
	<g>
		<path fill="#171747" d="M15.769,21.34h-3.433V1.506h3.433V21.34z"/>
		<path fill="#171747" d="M22.757,6.6l0.096,1.703c1.09-1.317,2.521-1.976,4.291-1.976c3.069,0,4.632,1.757,4.687,5.272v9.74H28.52
			v-9.549c0-0.936-0.202-1.628-0.606-2.078c-0.404-0.449-1.064-0.674-1.981-0.674c-1.336,0-2.33,0.604-2.983,1.812V21.34h-3.311V6.6
			H22.757z"/>
		<path fill="#171747" d="M34.581,13.862c0-2.271,0.526-4.094,1.58-5.47s2.466-2.064,4.236-2.064c1.563,0,2.825,0.545,3.787,1.635
			V0.416h3.311V21.34h-2.997l-0.163-1.526c-0.99,1.199-2.312,1.798-3.964,1.798c-1.726,0-3.122-0.695-4.189-2.084
			C35.114,18.139,34.581,16.25,34.581,13.862z M37.892,14.147c0,1.499,0.288,2.668,0.865,3.508c0.576,0.84,1.396,1.26,2.458,1.26
			c1.354,0,2.344-0.604,2.97-1.812V10.81c-0.608-1.18-1.589-1.771-2.942-1.771c-1.071,0-1.897,0.425-2.479,1.274
			C38.182,11.162,37.892,12.44,37.892,14.147z"/>
		<path fill="#171747" d="M50.956,2.773c0-0.509,0.161-0.931,0.483-1.267c0.322-0.336,0.783-0.504,1.383-0.504
			s1.063,0.168,1.39,0.504c0.326,0.336,0.49,0.758,0.49,1.267c0,0.5-0.164,0.915-0.49,1.247c-0.327,0.332-0.79,0.497-1.39,0.497
			s-1.061-0.166-1.383-0.497S50.956,3.272,50.956,2.773z M54.471,21.34H51.16V6.6h3.311V21.34z"/>
		<path fill="#171747" d="M66.88,21.34c-0.146-0.281-0.272-0.74-0.382-1.376c-1.053,1.099-2.343,1.648-3.868,1.648
			c-1.48,0-2.688-0.422-3.624-1.267c-0.936-0.844-1.403-1.889-1.403-3.133c0-1.571,0.584-2.777,1.751-3.617
			c1.167-0.84,2.836-1.26,5.006-1.26h2.03v-0.967c0-0.763-0.214-1.374-0.641-1.832s-1.076-0.688-1.948-0.688
			c-0.754,0-1.371,0.188-1.853,0.565s-0.722,0.856-0.722,1.437h-3.311c0-0.808,0.268-1.564,0.804-2.268s1.265-1.255,2.187-1.655
			c0.922-0.399,1.95-0.6,3.086-0.6c1.726,0,3.101,0.434,4.127,1.301s1.554,2.086,1.581,3.658v6.647c0,1.326,0.186,2.384,0.558,3.174
			v0.231H66.88z M63.243,18.956c0.653,0,1.269-0.159,1.846-0.477c0.576-0.318,1.01-0.745,1.301-1.28V14.42h-1.785
			c-1.226,0-2.147,0.214-2.765,0.641c-0.618,0.427-0.927,1.031-0.927,1.812c0,0.636,0.211,1.142,0.634,1.519
			C61.969,18.768,62.534,18.956,63.243,18.956z"/>
	</g>
	<g>
		<path fill="#414042" d="M1.669,28.264v3.223H1v-7.914h2.696c0.822,0,1.472,0.21,1.948,0.63s0.715,0.999,0.715,1.734
			c0,0.743-0.229,1.316-0.688,1.72c-0.458,0.404-1.122,0.606-1.992,0.606H1.669z M1.669,27.698h2.027
			c0.648,0,1.144-0.154,1.483-0.463c0.341-0.308,0.512-0.738,0.512-1.29c0-0.548-0.17-0.984-0.509-1.309
			c-0.339-0.325-0.819-0.491-1.443-0.499h-2.07V27.698z"/>
		<path fill="#414042" d="M10.42,26.16c-0.138-0.025-0.284-0.038-0.44-0.038c-0.405,0-0.749,0.113-1.029,0.339
			c-0.281,0.227-0.481,0.556-0.601,0.987v4.039H7.702v-5.881h0.637L8.35,26.54c0.344-0.696,0.896-1.044,1.657-1.044
			c0.182,0,0.324,0.024,0.43,0.071L10.42,26.16z"/>
		<path fill="#414042" d="M10.979,28.458c0-0.564,0.109-1.074,0.329-1.527c0.219-0.453,0.528-0.805,0.929-1.057
			s0.854-0.378,1.362-0.378c0.782,0,1.417,0.275,1.902,0.824s0.729,1.276,0.729,2.182v0.136c0,0.569-0.11,1.081-0.329,1.536
			c-0.22,0.455-0.528,0.806-0.927,1.052s-0.854,0.369-1.364,0.369c-0.779,0-1.412-0.274-1.899-0.823
			c-0.488-0.549-0.731-1.276-0.731-2.183V28.458z M11.632,28.638c0,0.703,0.182,1.28,0.546,1.731s0.842,0.677,1.433,0.677
			c0.587,0,1.063-0.226,1.427-0.677s0.546-1.046,0.546-1.785v-0.126c0-0.449-0.083-0.86-0.25-1.233
			c-0.166-0.373-0.4-0.662-0.701-0.867s-0.645-0.307-1.032-0.307c-0.58,0-1.053,0.228-1.419,0.682s-0.549,1.05-0.549,1.786V28.638z"
			/>
		<path fill="#414042" d="M22.303,28.606c0,0.917-0.203,1.645-0.609,2.183c-0.405,0.538-0.949,0.807-1.63,0.807
			c-0.805,0-1.421-0.282-1.849-0.848v3h-0.646v-8.142h0.604l0.032,0.832c0.424-0.626,1.038-0.94,1.843-0.94
			c0.703,0,1.255,0.267,1.655,0.799s0.601,1.272,0.601,2.217V28.606z M21.65,28.492c0-0.75-0.154-1.342-0.462-1.777
			c-0.309-0.435-0.737-0.652-1.288-0.652c-0.399,0-0.741,0.096-1.027,0.288c-0.287,0.192-0.506,0.471-0.658,0.837v2.821
			c0.156,0.337,0.379,0.595,0.669,0.771c0.29,0.178,0.632,0.267,1.027,0.267c0.547,0,0.974-0.218,1.279-0.655
			C21.497,29.954,21.65,29.322,21.65,28.492z"/>
		<path fill="#414042" d="M26.02,31.595c-0.5,0-0.952-0.123-1.355-0.369c-0.404-0.246-0.719-0.59-0.943-1.03
			s-0.337-0.934-0.337-1.481v-0.233c0-0.565,0.109-1.074,0.329-1.527c0.219-0.453,0.524-0.809,0.916-1.068
			c0.391-0.259,0.814-0.389,1.271-0.389c0.714,0,1.28,0.244,1.698,0.731c0.419,0.487,0.628,1.153,0.628,1.998v0.364H24.03v0.125
			c0,0.667,0.191,1.223,0.574,1.666c0.382,0.444,0.863,0.666,1.442,0.666c0.349,0,0.655-0.063,0.922-0.19
			c0.266-0.127,0.508-0.329,0.726-0.608l0.407,0.31C27.623,31.249,26.93,31.595,26.02,31.595z M25.9,26.051
			c-0.489,0-0.901,0.179-1.236,0.538c-0.336,0.359-0.539,0.841-0.611,1.446h3.527v-0.071c-0.019-0.565-0.18-1.025-0.483-1.38
			C26.792,26.229,26.394,26.051,25.9,26.051z"/>
		<path fill="#414042" d="M32.211,26.16c-0.138-0.025-0.284-0.038-0.44-0.038c-0.405,0-0.749,0.113-1.029,0.339
			c-0.281,0.227-0.481,0.556-0.601,0.987v4.039h-0.647v-5.881h0.637l0.011,0.935c0.344-0.696,0.896-1.044,1.657-1.044
			c0.182,0,0.324,0.024,0.43,0.071L32.211,26.16z"/>
		<path fill="#414042" d="M34.521,24.1v1.505h1.217v0.533h-1.217v3.924c0,0.326,0.059,0.569,0.176,0.729
			c0.118,0.16,0.314,0.239,0.59,0.239c0.109,0,0.285-0.018,0.527-0.054l0.027,0.528c-0.17,0.061-0.402,0.091-0.695,0.091
			c-0.446,0-0.771-0.129-0.974-0.389c-0.203-0.259-0.304-0.64-0.304-1.144v-3.925h-1.082v-0.533h1.082V24.1H34.521z"/>
		<path fill="#414042" d="M38.951,30.552l1.718-4.947h0.701l-2.511,6.881l-0.131,0.305c-0.322,0.714-0.82,1.07-1.494,1.07
			c-0.156,0-0.323-0.025-0.5-0.076l-0.006-0.538l0.337,0.033c0.319,0,0.577-0.079,0.774-0.236c0.197-0.158,0.365-0.429,0.503-0.813
			l0.288-0.794l-2.218-5.833h0.712L38.951,30.552z"/>
		<path fill="#414042" d="M50.839,29.019c-0.091,0.834-0.389,1.472-0.895,1.913c-0.506,0.442-1.179,0.663-2.02,0.663
			c-0.587,0-1.105-0.146-1.557-0.44c-0.451-0.293-0.8-0.709-1.047-1.247c-0.246-0.538-0.371-1.153-0.375-1.845v-1.027
			c0-0.703,0.123-1.326,0.37-1.87c0.246-0.543,0.601-0.963,1.063-1.258c0.462-0.295,0.993-0.443,1.595-0.443
			c0.849,0,1.518,0.229,2.009,0.685s0.776,1.089,0.856,1.897h-0.674c-0.167-1.344-0.897-2.017-2.191-2.017
			c-0.717,0-1.289,0.268-1.715,0.805c-0.426,0.537-0.639,1.278-0.639,2.225v0.968c0,0.914,0.208,1.643,0.623,2.187
			c0.414,0.544,0.976,0.815,1.682,0.815c0.699,0,1.227-0.167,1.582-0.502c0.355-0.336,0.574-0.838,0.658-1.509H50.839z"/>
		<path fill="#414042" d="M53.04,31.487h-0.652v-8.349h0.652V31.487z"/>
		<path fill="#414042" d="M54.769,23.907c0-0.122,0.04-0.226,0.12-0.311c0.079-0.084,0.188-0.127,0.326-0.127
			s0.247,0.042,0.328,0.127c0.082,0.085,0.123,0.188,0.123,0.311c0,0.123-0.041,0.225-0.123,0.308
			c-0.081,0.083-0.19,0.124-0.328,0.124s-0.247-0.041-0.326-0.124C54.809,24.132,54.769,24.029,54.769,23.907z M55.535,31.487
			h-0.652v-5.881h0.652V31.487z"/>
		<path fill="#414042" d="M57.922,25.605l0.021,1.006c0.221-0.362,0.496-0.639,0.826-0.829s0.694-0.286,1.093-0.286
			c0.631,0,1.1,0.178,1.407,0.533c0.309,0.355,0.464,0.888,0.468,1.598v3.859h-0.646v-3.865c-0.004-0.525-0.115-0.917-0.334-1.174
			c-0.22-0.257-0.57-0.386-1.053-0.386c-0.401,0-0.758,0.126-1.067,0.378c-0.311,0.252-0.539,0.592-0.688,1.019v4.028h-0.647v-5.881
			H57.922z"/>
		<path fill="#414042" d="M63.378,23.907c0-0.122,0.04-0.226,0.12-0.311c0.079-0.084,0.188-0.127,0.326-0.127
			s0.247,0.042,0.328,0.127c0.082,0.085,0.123,0.188,0.123,0.311c0,0.123-0.041,0.225-0.123,0.308
			c-0.081,0.083-0.19,0.124-0.328,0.124s-0.247-0.041-0.326-0.124C63.418,24.132,63.378,24.029,63.378,23.907z M64.145,31.487
			h-0.652v-5.881h0.652V31.487z"/>
		<path fill="#414042" d="M68.086,31.046c0.453,0,0.832-0.128,1.139-0.383c0.306-0.256,0.472-0.586,0.497-0.992h0.625
			c-0.018,0.358-0.13,0.686-0.337,0.981c-0.206,0.295-0.481,0.526-0.823,0.692c-0.343,0.167-0.71,0.25-1.101,0.25
			c-0.772,0-1.384-0.268-1.835-0.804c-0.451-0.537-0.677-1.258-0.677-2.164v-0.195c0-0.58,0.102-1.093,0.305-1.539
			c0.203-0.445,0.493-0.79,0.872-1.033c0.379-0.243,0.822-0.364,1.329-0.364c0.646,0,1.177,0.192,1.596,0.576
			c0.418,0.384,0.642,0.89,0.671,1.517h-0.625c-0.029-0.46-0.194-0.832-0.497-1.114s-0.685-0.424-1.145-0.424
			c-0.587,0-1.043,0.212-1.367,0.636c-0.324,0.424-0.486,1.019-0.486,1.783v0.19c0,0.75,0.162,1.335,0.486,1.755
			C67.037,30.836,67.495,31.046,68.086,31.046z"/>
	</g>
	<g>
		<g>
			<path fill="#F15A27" d="M5.632,19.901c0,0.045,0.019,0.086,0.048,0.115c0.029,0.029,0.07,0.048,0.115,0.048
				c0.089,0,0.162-0.073,0.162-0.162l0-3.827c-0.107,0.019-0.214,0.031-0.324,0.035L5.632,19.901z"/>
		</g>
		<g>
			<circle fill="#F15A27" cx="5.523" cy="12.637" r="0.68"/>
		</g>
		<g>
			<path fill="#F15A27" d="M0.93,12.543v8.798h4.408l-0.63-0.505c-0.006-0.005-0.012-0.011-0.018-0.016
				c-0.038-0.038-0.061-0.089-0.063-0.145c-0.001-0.062,0.023-0.123,0.069-0.165l0.413-0.386l-0.413-0.386
				c-0.049-0.047-0.069-0.098-0.069-0.159c0.001-0.059,0.025-0.117,0.069-0.158l0.414-0.385l-0.414-0.387
				c-0.044-0.04-0.069-0.098-0.068-0.157c-0.001-0.061,0.025-0.117,0.069-0.158l0.413-0.387l-0.413-0.385
				c-0.045-0.042-0.069-0.098-0.069-0.159l0.001-1.464c-0.295-0.119-0.564-0.296-0.795-0.527c-0.452-0.452-0.7-1.052-0.7-1.691
				c0-1.319,1.072-2.391,2.391-2.391c0.639,0.001,1.239,0.248,1.691,0.7c0.452,0.452,0.7,1.052,0.701,1.69
				c-0.001,0.638-0.25,1.239-0.701,1.691c-0.231,0.231-0.501,0.408-0.795,0.527v4.455c0.001,0.051-0.018,0.101-0.05,0.138
				l-0.671,0.806h4.419V3.675L0.93,12.543z"/>
		</g>
	</g>
</g>
</svg>
