<?xml version="1.0" encoding="utf-8"?>
<!-- Generator: Adobe Illustrator 17.0.0, SVG Export Plug-In . SVG Version: 6.00 Build 0)  -->
<!DOCTYPE svg PUBLIC "-//W3C//DTD SVG 1.1//EN" "http://www.w3.org/Graphics/SVG/1.1/DTD/svg11.dtd">
<svg version="1.1" id="Layer_1" xmlns="http://www.w3.org/2000/svg" xmlns:xlink="http://www.w3.org/1999/xlink" x="0px" y="0px"
	 width="182.696px" height="35.752px" viewBox="0 0 182.696 35.752" enable-background="new 0 0 182.696 35.752"
	 xml:space="preserve">
<g>
	<g>
		<path fill="none" d="M54.632,34.686c0.283-1.583,0.439-3.21,0.439-4.874c0-15.207-12.328-27.535-27.535-27.535S0,14.605,0,29.812
			c0,1.664,0.156,3.291,0.439,4.874H54.632z"/>
		<g>
			<path fill="#171747" d="M22.208,21.134c0,0-2.953,1.266-2.953,2.979v8.464h5.906v-8.464
				C25.161,22.399,22.208,21.134,22.208,21.134z"/>
			<path fill="#171747" d="M16.345,29.013c-0.221-0.377-0.689-0.597-1.055-0.806c-0.033-0.019-0.335-0.155-0.335-0.179
				c0,0.024-0.302,0.16-0.335,0.179c-0.367,0.209-0.834,0.43-1.055,0.806c-0.165,0.28-0.201,0.594-0.202,0.813h0v2.632h3.184v-2.632
				h0C16.546,29.607,16.509,29.294,16.345,29.013z"/>
			<path fill="#171747" d="M11.219,23.239c-0.137-0.377-0.426-0.597-0.653-0.806c-0.02-0.019-0.207-0.155-0.207-0.179
				c0,0.024-0.187,0.16-0.207,0.179c-0.227,0.209-0.516,0.43-0.653,0.806c-0.102,0.28-0.125,0.594-0.125,0.813h0v2.632h1.971v-2.632
				h0C11.344,23.833,11.321,23.519,11.219,23.239z"/>
			<path fill="#171747" d="M11.219,29.013c-0.137-0.377-0.426-0.597-0.653-0.806c-0.02-0.019-0.207-0.155-0.207-0.179
				c0,0.024-0.187,0.16-0.207,0.179c-0.227,0.209-0.516,0.43-0.653,0.806c-0.102,0.28-0.125,0.594-0.125,0.813h0v2.632h1.971v-2.632
				h0C11.344,29.607,11.321,29.294,11.219,29.013z"/>
			<path fill="#171747" d="M0.439,34.686h0.253v-2.109h1.707l0.101-5.221H1.997v-0.712h0.516l0.088-4.548H1.997v-0.712h0.617
				l0.066-3.432C0.963,21.544,0,25.565,0,29.812C0,31.476,0.156,33.103,0.439,34.686z"/>
			<path fill="#171747" d="M16.345,23.239c-0.221-0.377-0.689-0.597-1.055-0.806c-0.033-0.019-0.335-0.155-0.335-0.179
				c0,0.024-0.302,0.16-0.335,0.179c-0.367,0.209-0.834,0.43-1.055,0.806c-0.165,0.28-0.201,0.594-0.202,0.813h0v2.632h3.184v-2.632
				h0C16.546,23.833,16.509,23.519,16.345,23.239z"/>
		</g>
		<g>
			<path fill="#171747" d="M5.319,13.55v0.241h0.316v0.712H4.966l0.024,0.87h0.645v0.712H5.01l0.147,5.3h0.715v0.712H5.178
				l0.126,4.548h0.569v0.712H5.324l0.145,5.221h1.973V17.969h0.949v3.164h0.475v-4.166h0.527v2.689h0.949v-2.689h0.633v3.744h1.16
				v-0.896c0,0-0.158-2.373,2.004-2.584v-1.846h0.58v1.951h0.369v3.428h1.477V17.6h11.247v0.808l1.366-0.578v4.42
				c0.319,0.646,0.679,1.274,1.069,1.872V17.38l1.571-0.67v9.486c0.343,0.391,0.703,0.77,1.075,1.132V16.26l1.571-0.67v13.089
				c0.343,0.273,0.703,0.527,1.069,0.77V15.14l1.577-0.67V30.38c0.348,0.184,0.709,0.361,1.069,0.521V6.246l1.571-0.93v7.868h0.005
				v-0.303h0.071V5.173c-3.7-1.849-7.872-2.896-12.29-2.896C18.413,2.277,10.33,6.716,5.319,13.55z M28.483,16.071H15.932
				c0,0-0.424-2.384,0.731-4.35c0.883-1.503,2.748-2.383,4.21-3.216c0.101-0.058,0.846-0.396,1.177-0.59V3.995h0.316v3.919
				c0.33,0.194,1.075,0.533,1.177,0.59c1.462,0.834,3.327,1.714,4.21,3.216C28.907,13.688,28.483,16.071,28.483,16.071z"/>
			<path fill="#171747" d="M56.64,28.844V20.43c0-6.885,0-14.635,0-14.635L48.743,0v32.228c-0.348,0.059-0.703,0.107-1.057,0.142
				V0.628l-1.571,0.924v30.924c-0.148,0.012-0.301,0.012-0.449,0.012c-0.207,0-0.419-0.006-0.626-0.018V2.192l-1.571,0.924v12.739
				L42.4,15.489V3.751l-1.571,0.93v10.257l-0.891-0.309v20.057h16.71v-5.847C56.645,28.84,56.642,28.842,56.64,28.844z"/>
		</g>
	</g>
	<g>
		<g>
			<path fill="#171747" d="M60.85,25.301c-0.117-0.117-0.176-0.306-0.176-0.564v-10.47c0-0.259,0.059-0.447,0.176-0.564
				c0.117-0.118,0.306-0.177,0.563-0.177s0.445,0.059,0.563,0.177c0.117,0.117,0.176,0.306,0.176,0.564v10.47
				c0,0.259-0.059,0.447-0.176,0.564c-0.118,0.118-0.306,0.177-0.563,0.177S60.967,25.42,60.85,25.301z"/>
			<path fill="#171747" d="M74.577,13.703c0.129,0.129,0.193,0.312,0.193,0.547v10.487c0,0.235-0.064,0.418-0.193,0.547
				c-0.129,0.13-0.311,0.194-0.546,0.194c-0.141,0-0.27-0.035-0.387-0.105c-0.117-0.071-0.235-0.183-0.352-0.336l-6.705-8.669v8.369
				c0,0.235-0.064,0.418-0.193,0.547c-0.13,0.13-0.312,0.194-0.546,0.194s-0.417-0.064-0.546-0.194
				c-0.129-0.129-0.193-0.312-0.193-0.547V14.25c0-0.235,0.064-0.418,0.193-0.547c0.129-0.13,0.312-0.194,0.546-0.194
				c0.141,0,0.267,0.035,0.378,0.105c0.111,0.071,0.231,0.183,0.361,0.336l6.705,8.668V14.25c0-0.235,0.063-0.418,0.193-0.547
				c0.129-0.13,0.311-0.194,0.545-0.194C74.266,13.508,74.448,13.573,74.577,13.703z"/>
			<path fill="#171747" d="M77.92,25.284c-0.129-0.129-0.193-0.312-0.193-0.547V14.25c0-0.235,0.064-0.418,0.193-0.547
				c0.129-0.13,0.312-0.194,0.546-0.194h4.241c1.537,0,2.666,0.361,3.388,1.086c0.722,0.724,1.082,1.856,1.082,3.398v3.001
				c0,1.542-0.36,2.675-1.082,3.398s-1.851,1.086-3.388,1.086h-4.241C78.231,25.478,78.049,25.414,77.92,25.284z M82.707,23.995
				c0.763,0,1.357-0.094,1.786-0.282c0.428-0.188,0.736-0.497,0.924-0.927s0.281-1.026,0.281-1.792v-3.001
				c0-0.766-0.094-1.362-0.281-1.792s-0.496-0.738-0.924-0.927c-0.429-0.188-1.023-0.283-1.786-0.283h-3.502v9.004H82.707z"/>
			<path fill="#171747" d="M89.886,25.301c-0.117-0.117-0.176-0.306-0.176-0.564v-10.47c0-0.259,0.059-0.447,0.176-0.564
				c0.117-0.118,0.306-0.177,0.563-0.177s0.445,0.059,0.563,0.177c0.117,0.117,0.176,0.306,0.176,0.564v10.47
				c0,0.259-0.059,0.447-0.176,0.564c-0.118,0.118-0.306,0.177-0.563,0.177S90.004,25.42,89.886,25.301z"/>
			<path fill="#171747" d="M103.314,24.79c0,0.282-0.159,0.488-0.476,0.618c-0.105,0.047-0.223,0.07-0.352,0.07
				c-0.282,0-0.487-0.159-0.616-0.477l-0.95-2.313h-5.473l-0.915,2.313c-0.13,0.317-0.335,0.477-0.616,0.477
				c-0.117,0-0.229-0.023-0.335-0.07c-0.328-0.118-0.492-0.324-0.492-0.618c0-0.13,0.023-0.247,0.07-0.354l4.188-10.346
				c0.176-0.388,0.451-0.582,0.827-0.582h0.035c0.387,0.023,0.645,0.218,0.774,0.582l4.259,10.346
				C103.29,24.543,103.314,24.66,103.314,24.79z M96.028,21.206h4.294l-2.199-5.35L96.028,21.206z"/>
			<path fill="#171747" d="M116.01,15.053c0.498,0.5,0.747,1.238,0.747,2.216v0.529c0,0.977-0.249,1.716-0.747,2.216
				c-0.499,0.5-1.235,0.75-2.209,0.75h-3.748v4.343c0,0.247-0.123,0.371-0.37,0.371c-0.246,0-0.369-0.124-0.369-0.371V14.674
				c0-0.247,0.123-0.371,0.369-0.371h4.118C114.775,14.302,115.511,14.553,116.01,15.053z M116.019,17.269
				c0-0.766-0.18-1.327-0.537-1.687c-0.358-0.358-0.918-0.538-1.681-0.538h-3.748v4.979h3.748c0.763,0,1.322-0.18,1.681-0.539
				c0.357-0.358,0.537-0.921,0.537-1.686V17.269z"/>
			<path fill="#171747" d="M126.032,25.214c0,0.117-0.064,0.212-0.193,0.282c-0.083,0.047-0.159,0.07-0.229,0.07
				c-0.117,0-0.211-0.059-0.281-0.176l-2.938-4.626h-3.484v4.343c0,0.247-0.123,0.371-0.37,0.371c-0.246,0-0.369-0.124-0.369-0.371
				V14.674c0-0.247,0.123-0.371,0.369-0.371h4.118c0.974,0,1.71,0.251,2.209,0.751c0.498,0.5,0.747,1.238,0.747,2.216v0.529
				c0,1.754-0.786,2.73-2.357,2.931l2.692,4.255C126.003,25.078,126.032,25.155,126.032,25.214z M118.905,20.023h3.748
				c0.763,0,1.322-0.18,1.681-0.539c0.357-0.358,0.537-0.921,0.537-1.686v-0.529c0-0.766-0.18-1.327-0.537-1.687
				c-0.358-0.358-0.918-0.538-1.681-0.538h-3.748V20.023z"/>
			<path fill="#171747" d="M128.382,24.622c-0.569-0.57-0.854-1.479-0.854-2.728v-4.008c0-1.259,0.281-2.174,0.845-2.745
				c0.563-0.57,1.466-0.851,2.71-0.839h2.129c1.256,0,2.165,0.283,2.728,0.848c0.563,0.565,0.845,1.478,0.845,2.736v4.008
				c0,1.248-0.281,2.157-0.845,2.728c-0.563,0.571-1.472,0.856-2.728,0.856H131.1C129.856,25.478,128.95,25.193,128.382,24.622z
				 M133.212,24.737c1.044,0,1.777-0.215,2.2-0.645c0.422-0.43,0.633-1.162,0.633-2.198v-4.008c0-1.047-0.211-1.783-0.633-2.207
				c-0.423-0.423-1.156-0.635-2.2-0.635h-2.129c-1.033-0.012-1.76,0.197-2.183,0.626c-0.422,0.43-0.634,1.169-0.634,2.216v4.008
				c0,1.036,0.215,1.769,0.643,2.198c0.429,0.43,1.158,0.645,2.191,0.645H133.212z"/>
			<path fill="#171747" d="M145.768,15.053c0.498,0.5,0.747,1.238,0.747,2.216v0.529c0,0.977-0.249,1.716-0.747,2.216
				c-0.499,0.5-1.235,0.75-2.209,0.75h-3.748v4.343c0,0.247-0.123,0.371-0.37,0.371c-0.246,0-0.369-0.124-0.369-0.371V14.674
				c0-0.247,0.123-0.371,0.369-0.371h4.118C144.533,14.302,145.269,14.553,145.768,15.053z M145.777,17.269
				c0-0.766-0.18-1.327-0.537-1.687c-0.358-0.358-0.918-0.538-1.681-0.538h-3.748v4.979h3.748c0.763,0,1.322-0.18,1.681-0.539
				c0.357-0.358,0.537-0.921,0.537-1.686V17.269z"/>
			<path fill="#171747" d="M155.349,25.107c0,0.247-0.123,0.371-0.369,0.371h-6.688c-0.246,0-0.369-0.124-0.369-0.371V14.674
				c0-0.247,0.123-0.371,0.369-0.371h6.688c0.246,0,0.369,0.124,0.369,0.371s-0.123,0.371-0.369,0.371h-6.317v4.396h4.241
				c0.246,0,0.369,0.124,0.369,0.371s-0.123,0.37-0.369,0.37h-4.241v4.556h6.317C155.226,24.737,155.349,24.86,155.349,25.107z"/>
			<path fill="#171747" d="M164.713,25.214c0,0.117-0.064,0.212-0.193,0.282c-0.083,0.047-0.159,0.07-0.229,0.07
				c-0.117,0-0.211-0.059-0.281-0.176l-2.938-4.626h-3.484v4.343c0,0.247-0.123,0.371-0.37,0.371c-0.246,0-0.369-0.124-0.369-0.371
				V14.674c0-0.247,0.123-0.371,0.369-0.371h4.118c0.974,0,1.71,0.251,2.209,0.751c0.498,0.5,0.747,1.238,0.747,2.216v0.529
				c0,1.754-0.786,2.73-2.357,2.931l2.692,4.255C164.683,25.078,164.713,25.155,164.713,25.214z M157.586,20.023h3.748
				c0.763,0,1.322-0.18,1.681-0.539c0.357-0.358,0.537-0.921,0.537-1.686v-0.529c0-0.766-0.18-1.327-0.537-1.687
				c-0.358-0.358-0.918-0.538-1.681-0.538h-3.748V20.023z"/>
			<path fill="#171747" d="M169.041,25.39c-0.07-0.071-0.105-0.159-0.105-0.266V15.027h-3.854c-0.105,0-0.193-0.036-0.265-0.106
				c-0.07-0.07-0.105-0.159-0.105-0.265c0-0.106,0.035-0.194,0.105-0.265c0.071-0.071,0.159-0.106,0.265-0.106h8.446
				c0.106,0,0.194,0.035,0.265,0.106c0.07,0.07,0.105,0.158,0.105,0.265c0,0.105-0.035,0.194-0.105,0.265s-0.158,0.106-0.265,0.106
				h-3.854v10.098c0,0.106-0.035,0.194-0.105,0.266c-0.07,0.07-0.158,0.105-0.264,0.105
				C169.199,25.496,169.111,25.461,169.041,25.39z"/>
			<path fill="#171747" d="M182.696,14.656c0,0.059-0.029,0.136-0.088,0.229l-3.906,6.179v4.043c0,0.247-0.124,0.371-0.37,0.371
				s-0.369-0.124-0.369-0.371v-4.043l-3.907-6.179c-0.047-0.059-0.07-0.13-0.07-0.212c0-0.106,0.064-0.206,0.193-0.3
				c0.059-0.047,0.129-0.071,0.212-0.071c0.129,0,0.229,0.065,0.299,0.194l3.643,5.773l3.66-5.791
				c0.071-0.117,0.165-0.177,0.282-0.177c0.07,0,0.146,0.024,0.229,0.071C182.632,14.444,182.696,14.539,182.696,14.656z"/>
		</g>
		<g>
			<path fill="#171747" d="M60.757,34.505c-0.335-0.336-0.502-0.857-0.502-1.565v-2.124c0-0.708,0.167-1.231,0.502-1.57
				c0.334-0.339,0.852-0.505,1.551-0.499h1.114c0.576,0,1.017,0.12,1.32,0.36s0.48,0.616,0.529,1.127
				c0.019,0.129-0.006,0.228-0.073,0.295c-0.067,0.068-0.166,0.102-0.295,0.102c-0.122,0-0.216-0.032-0.28-0.097
				s-0.106-0.161-0.124-0.291c-0.031-0.276-0.126-0.466-0.286-0.567c-0.159-0.102-0.423-0.152-0.791-0.152h-1.114
				c-0.331-0.007-0.589,0.03-0.773,0.11c-0.184,0.08-0.314,0.213-0.391,0.397c-0.077,0.185-0.115,0.446-0.115,0.785v2.124
				c0,0.338,0.04,0.599,0.119,0.78c0.08,0.182,0.211,0.313,0.392,0.393s0.44,0.12,0.778,0.12h1.104c0.368,0,0.632-0.051,0.791-0.152
				c0.16-0.102,0.255-0.291,0.286-0.568c0.018-0.129,0.06-0.227,0.124-0.291s0.158-0.097,0.28-0.097
				c0.129,0,0.228,0.034,0.295,0.102s0.092,0.166,0.073,0.295c-0.049,0.512-0.226,0.887-0.529,1.127s-0.744,0.36-1.32,0.36h-1.104
				C61.611,35.008,61.091,34.84,60.757,34.505z"/>
			<path fill="#171747" d="M66.514,34.62v-5.486c0-0.258,0.129-0.388,0.387-0.388s0.387,0.13,0.387,0.388v5.099h2.55
				c0.258,0,0.387,0.129,0.387,0.388s-0.129,0.388-0.387,0.388h-2.937C66.643,35.008,66.514,34.879,66.514,34.62z"/>
			<path fill="#171747" d="M71.218,34.915c-0.062-0.062-0.093-0.159-0.093-0.295v-5.477c0-0.136,0.031-0.234,0.093-0.296
				c0.061-0.062,0.159-0.092,0.294-0.092s0.233,0.03,0.295,0.092s0.092,0.16,0.092,0.296v5.477c0,0.136-0.03,0.233-0.092,0.295
				c-0.062,0.063-0.16,0.093-0.295,0.093S71.279,34.977,71.218,34.915z"/>
			<path fill="#171747" d="M78.398,28.847c0.067,0.068,0.101,0.163,0.101,0.286v5.486c0,0.123-0.033,0.219-0.101,0.286
				c-0.068,0.067-0.163,0.102-0.286,0.102c-0.073,0-0.141-0.019-0.202-0.056s-0.123-0.095-0.184-0.175l-3.508-4.535v4.378
				c0,0.123-0.033,0.219-0.102,0.286c-0.067,0.067-0.162,0.102-0.285,0.102s-0.218-0.034-0.285-0.102s-0.102-0.163-0.102-0.286
				v-5.486c0-0.123,0.034-0.218,0.102-0.286c0.067-0.067,0.162-0.102,0.285-0.102c0.074,0,0.14,0.019,0.198,0.056
				s0.121,0.096,0.188,0.176l3.508,4.534v-4.378c0-0.123,0.033-0.218,0.101-0.286c0.067-0.067,0.163-0.102,0.285-0.102
				C78.235,28.746,78.33,28.78,78.398,28.847z"/>
			<path fill="#171747" d="M80.138,34.915c-0.062-0.062-0.093-0.159-0.093-0.295v-5.477c0-0.136,0.031-0.234,0.093-0.296
				c0.061-0.062,0.159-0.092,0.294-0.092s0.233,0.03,0.295,0.092s0.092,0.16,0.092,0.296v5.477c0,0.136-0.03,0.233-0.092,0.295
				c-0.062,0.063-0.16,0.093-0.295,0.093S80.199,34.977,80.138,34.915z"/>
			<path fill="#171747" d="M82.646,34.505c-0.335-0.336-0.502-0.857-0.502-1.565v-2.124c0-0.708,0.167-1.231,0.502-1.57
				c0.334-0.339,0.852-0.505,1.551-0.499h1.114c0.576,0,1.017,0.12,1.32,0.36s0.48,0.616,0.529,1.127
				c0.019,0.129-0.006,0.228-0.073,0.295c-0.067,0.068-0.166,0.102-0.295,0.102c-0.122,0-0.216-0.032-0.28-0.097
				s-0.106-0.161-0.124-0.291c-0.031-0.276-0.126-0.466-0.286-0.567c-0.159-0.102-0.423-0.152-0.791-0.152h-1.114
				c-0.331-0.007-0.589,0.03-0.773,0.11c-0.184,0.08-0.314,0.213-0.391,0.397c-0.077,0.185-0.115,0.446-0.115,0.785v2.124
				c0,0.338,0.04,0.599,0.119,0.78c0.08,0.182,0.211,0.313,0.392,0.393s0.44,0.12,0.778,0.12h1.104c0.368,0,0.632-0.051,0.791-0.152
				c0.16-0.102,0.255-0.291,0.286-0.568c0.018-0.129,0.06-0.227,0.124-0.291s0.158-0.097,0.28-0.097
				c0.129,0,0.228,0.034,0.295,0.102s0.092,0.166,0.073,0.295c-0.049,0.512-0.226,0.887-0.529,1.127s-0.744,0.36-1.32,0.36h-1.104
				C83.501,35.008,82.98,34.84,82.646,34.505z"/>
		</g>
		<g>
			<path fill="#171747" d="M92.829,34.614c-0.255-0.255-0.382-0.66-0.382-1.214c0-0.056,0.019-0.103,0.056-0.139
				c0.036-0.037,0.082-0.056,0.138-0.056s0.102,0.019,0.138,0.056c0.037,0.036,0.056,0.083,0.056,0.139
				c0,0.449,0.091,0.763,0.271,0.941s0.495,0.268,0.943,0.268h1.326c0.447,0,0.762-0.089,0.943-0.268
				c0.181-0.179,0.271-0.492,0.271-0.941c0-0.45-0.091-0.764-0.271-0.942c-0.182-0.179-0.496-0.268-0.943-0.268h-1.298
				c-0.528,0-0.913-0.12-1.155-0.36c-0.243-0.24-0.364-0.625-0.364-1.154s0.121-0.914,0.364-1.154c0.242-0.24,0.624-0.36,1.146-0.36
				h1.354c0.521,0,0.903,0.12,1.146,0.36c0.243,0.24,0.364,0.622,0.364,1.145c0,0.056-0.019,0.102-0.056,0.139
				s-0.083,0.056-0.138,0.056c-0.056,0-0.102-0.019-0.139-0.056c-0.036-0.037-0.055-0.083-0.055-0.139
				c0-0.412-0.085-0.701-0.253-0.868c-0.169-0.166-0.459-0.249-0.87-0.249h-1.354c-0.411,0-0.701,0.083-0.87,0.249
				c-0.169,0.167-0.253,0.459-0.253,0.878s0.084,0.711,0.253,0.877s0.462,0.25,0.88,0.25h1.298c0.558,0,0.965,0.127,1.22,0.383
				c0.254,0.256,0.382,0.66,0.382,1.215c0,0.554-0.128,0.959-0.382,1.214c-0.255,0.256-0.662,0.384-1.22,0.384h-1.326
				C93.49,34.998,93.084,34.87,92.829,34.614z"/>
			<path fill="#171747" d="M98.173,34.812v-5.458c0-0.129,0.064-0.193,0.193-0.193s0.193,0.064,0.193,0.193v5.265h2.882
				c0.129,0,0.193,0.064,0.193,0.193c0,0.13-0.064,0.194-0.193,0.194h-3.075C98.237,35.007,98.173,34.942,98.173,34.812z"/>
			<path fill="#171747" d="M102.448,34.558c-0.298-0.298-0.446-0.773-0.446-1.427v-2.096c0-0.659,0.147-1.138,0.442-1.437
				c0.294-0.299,0.767-0.444,1.417-0.438h1.114c0.656,0,1.132,0.147,1.427,0.443c0.295,0.295,0.441,0.772,0.441,1.432v2.096
				c0,0.653-0.146,1.129-0.441,1.427c-0.295,0.299-0.771,0.448-1.427,0.448h-1.104C103.219,35.007,102.746,34.857,102.448,34.558z
				 M104.975,34.619c0.546,0,0.93-0.112,1.15-0.337s0.331-0.608,0.331-1.15v-2.096c0-0.548-0.11-0.934-0.331-1.155
				c-0.221-0.221-0.604-0.332-1.15-0.332h-1.114c-0.54-0.006-0.92,0.104-1.142,0.328c-0.221,0.225-0.331,0.611-0.331,1.159v2.096
				c0,0.542,0.112,0.926,0.336,1.15s0.606,0.337,1.146,0.337H104.975z"/>
			<path fill="#171747" d="M108.395,34.558c-0.298-0.298-0.446-0.773-0.446-1.427v-2.096c0-0.659,0.147-1.137,0.442-1.432
				c0.294-0.296,0.767-0.443,1.417-0.443h1.114c0.564,0,0.979,0.117,1.242,0.351c0.264,0.234,0.408,0.613,0.433,1.136v0.028
				c0,0.117-0.061,0.175-0.184,0.175s-0.19-0.064-0.203-0.193c-0.018-0.412-0.124-0.7-0.317-0.863s-0.517-0.245-0.971-0.245h-1.114
				c-0.368,0-0.658,0.048-0.87,0.144c-0.211,0.095-0.365,0.251-0.46,0.466c-0.095,0.216-0.143,0.508-0.143,0.878v2.096
				c0,0.542,0.112,0.926,0.336,1.15s0.606,0.337,1.146,0.337h1.104c0.331,0,0.591-0.04,0.777-0.12c0.188-0.08,0.321-0.214,0.4-0.401
				c0.08-0.188,0.12-0.448,0.12-0.781v-0.628l-1.104-0.009c-0.129,0-0.193-0.064-0.193-0.194c0-0.129,0.064-0.193,0.193-0.193
				l1.298,0.009c0.129,0,0.193,0.064,0.193,0.194v0.821c0,0.598-0.132,1.028-0.396,1.293c-0.264,0.266-0.693,0.397-1.288,0.397
				h-1.104C109.167,35.007,108.693,34.857,108.395,34.558z"/>
			<path fill="#171747" d="M118.194,34.831c0,0.068-0.043,0.12-0.129,0.157c-0.037,0.013-0.067,0.019-0.092,0.019
				c-0.067,0-0.12-0.04-0.156-0.12l-0.654-1.542c-0.019,0.006-0.049,0.009-0.092,0.009h-2.899c-0.031,0-0.053-0.003-0.064-0.009
				l-0.663,1.542c-0.037,0.08-0.092,0.12-0.166,0.12c-0.012,0-0.043-0.006-0.092-0.019c-0.08-0.037-0.119-0.092-0.119-0.166
				c0-0.013,0.006-0.043,0.018-0.093l2.311-5.421c0.037-0.099,0.11-0.147,0.222-0.147h0.027c0.104,0,0.178,0.049,0.221,0.147
				l2.302,5.421C118.185,34.766,118.194,34.8,118.194,34.831z M114.272,32.966h2.726l-1.354-3.195L114.272,32.966z"/>
			<path fill="#171747" d="M123.507,29.354v5.458c0,0.13-0.064,0.194-0.193,0.194c-0.068,0-0.136-0.037-0.203-0.11l-3.885-4.997
				v4.913c0,0.13-0.064,0.194-0.193,0.194s-0.193-0.064-0.193-0.194v-5.458c0-0.129,0.064-0.193,0.193-0.193
				c0.074,0,0.142,0.037,0.203,0.11l3.885,4.996v-4.913c0-0.129,0.064-0.193,0.193-0.193S123.507,29.225,123.507,29.354z"/>
			<path fill="#171747" d="M126.897,34.558c-0.298-0.298-0.446-0.773-0.446-1.427v-2.096c0-0.659,0.147-1.137,0.442-1.432
				c0.294-0.296,0.767-0.443,1.417-0.443h1.114c0.564,0,0.979,0.117,1.242,0.351c0.264,0.234,0.408,0.613,0.433,1.136v0.028
				c0,0.117-0.061,0.175-0.184,0.175s-0.19-0.064-0.203-0.193c-0.018-0.412-0.124-0.7-0.317-0.863s-0.517-0.245-0.971-0.245h-1.114
				c-0.368,0-0.658,0.048-0.87,0.144c-0.211,0.095-0.365,0.251-0.46,0.466c-0.095,0.216-0.143,0.508-0.143,0.878v2.096
				c0,0.542,0.112,0.926,0.336,1.15s0.606,0.337,1.146,0.337h1.104c0.331,0,0.591-0.04,0.777-0.12c0.188-0.08,0.321-0.214,0.4-0.401
				c0.08-0.188,0.12-0.448,0.12-0.781v-0.628l-1.104-0.009c-0.129,0-0.193-0.064-0.193-0.194c0-0.129,0.064-0.193,0.193-0.193
				l1.298,0.009c0.129,0,0.193,0.064,0.193,0.194v0.821c0,0.598-0.132,1.028-0.396,1.293c-0.264,0.266-0.693,0.397-1.288,0.397
				h-1.104C127.669,35.007,127.195,34.857,126.897,34.558z"/>
			<path fill="#171747" d="M132.568,34.558c-0.298-0.298-0.446-0.773-0.446-1.427v-2.096c0-0.659,0.147-1.138,0.442-1.437
				c0.294-0.299,0.767-0.444,1.417-0.438h1.114c0.656,0,1.132,0.147,1.427,0.443c0.295,0.295,0.441,0.772,0.441,1.432v2.096
				c0,0.653-0.146,1.129-0.441,1.427c-0.295,0.299-0.771,0.448-1.427,0.448h-1.104C133.34,35.007,132.866,34.857,132.568,34.558z
				 M135.095,34.619c0.546,0,0.93-0.112,1.15-0.337s0.331-0.608,0.331-1.15v-2.096c0-0.548-0.11-0.934-0.331-1.155
				c-0.221-0.221-0.604-0.332-1.15-0.332h-1.114c-0.54-0.006-0.92,0.104-1.142,0.328c-0.221,0.225-0.331,0.611-0.331,1.159v2.096
				c0,0.542,0.112,0.926,0.336,1.15s0.606,0.337,1.146,0.337H135.095z"/>
			<path fill="#171747" d="M142.045,34.812c0,0.13-0.064,0.194-0.193,0.194h-3.498c-0.129,0-0.193-0.064-0.193-0.194v-5.458
				c0-0.129,0.064-0.193,0.193-0.193h3.498c0.129,0,0.193,0.064,0.193,0.193c0,0.13-0.064,0.194-0.193,0.194h-3.305v2.3h2.219
				c0.129,0,0.193,0.064,0.193,0.193c0,0.13-0.064,0.194-0.193,0.194h-2.219v2.383h3.305
				C141.98,34.619,142.045,34.683,142.045,34.812z"/>
			<path fill="#171747" d="M143.117,34.614c-0.255-0.255-0.382-0.66-0.382-1.214c0-0.056,0.019-0.103,0.056-0.139
				c0.036-0.037,0.082-0.056,0.138-0.056s0.102,0.019,0.138,0.056c0.037,0.036,0.056,0.083,0.056,0.139
				c0,0.449,0.091,0.763,0.271,0.941s0.495,0.268,0.943,0.268h1.326c0.447,0,0.762-0.089,0.943-0.268
				c0.181-0.179,0.271-0.492,0.271-0.941c0-0.45-0.091-0.764-0.271-0.942c-0.182-0.179-0.496-0.268-0.943-0.268h-1.298
				c-0.528,0-0.913-0.12-1.155-0.36c-0.243-0.24-0.364-0.625-0.364-1.154s0.121-0.914,0.364-1.154c0.242-0.24,0.624-0.36,1.146-0.36
				h1.354c0.521,0,0.903,0.12,1.146,0.36c0.243,0.24,0.364,0.622,0.364,1.145c0,0.056-0.019,0.102-0.056,0.139
				s-0.083,0.056-0.138,0.056c-0.056,0-0.102-0.019-0.139-0.056c-0.036-0.037-0.055-0.083-0.055-0.139
				c0-0.412-0.085-0.701-0.253-0.868c-0.169-0.166-0.459-0.249-0.87-0.249h-1.354c-0.411,0-0.701,0.083-0.87,0.249
				c-0.169,0.167-0.253,0.459-0.253,0.878s0.084,0.711,0.253,0.877s0.462,0.25,0.88,0.25h1.298c0.558,0,0.965,0.127,1.22,0.383
				c0.254,0.256,0.382,0.66,0.382,1.215c0,0.554-0.128,0.959-0.382,1.214c-0.255,0.256-0.662,0.384-1.22,0.384h-1.326
				C143.778,34.998,143.372,34.87,143.117,34.614z"/>
			<path fill="#171747" d="M150.21,34.812v-5.458c0-0.129,0.064-0.193,0.193-0.193s0.193,0.064,0.193,0.193v2.494h3.895v-2.494
				c0-0.129,0.064-0.193,0.193-0.193s0.193,0.064,0.193,0.193v5.458c0,0.13-0.064,0.194-0.193,0.194s-0.193-0.064-0.193-0.194
				v-2.576h-3.895v2.576c0,0.13-0.064,0.194-0.193,0.194S150.21,34.942,150.21,34.812z"/>
			<path fill="#171747" d="M160.05,34.812c0,0.13-0.064,0.194-0.193,0.194h-3.498c-0.129,0-0.193-0.064-0.193-0.194v-5.458
				c0-0.129,0.064-0.193,0.193-0.193h3.498c0.129,0,0.193,0.064,0.193,0.193c0,0.13-0.064,0.194-0.193,0.194h-3.305v2.3h2.219
				c0.129,0,0.193,0.064,0.193,0.193c0,0.13-0.064,0.194-0.193,0.194h-2.219v2.383h3.305
				C159.986,34.619,160.05,34.683,160.05,34.812z"/>
			<path fill="#171747" d="M164.948,34.868c0,0.062-0.034,0.111-0.102,0.147c-0.043,0.025-0.083,0.037-0.119,0.037
				c-0.062,0-0.11-0.03-0.147-0.092l-1.537-2.42h-1.823v2.271c0,0.13-0.064,0.194-0.193,0.194s-0.193-0.064-0.193-0.194v-5.458
				c0-0.129,0.064-0.193,0.193-0.193h2.154c0.51,0,0.895,0.131,1.155,0.393s0.392,0.647,0.392,1.159v0.276
				c0,0.918-0.411,1.429-1.233,1.533l1.408,2.226C164.932,34.798,164.948,34.838,164.948,34.868z M161.219,32.153h1.961
				c0.399,0,0.692-0.094,0.879-0.282c0.188-0.188,0.281-0.481,0.281-0.882v-0.276c0-0.4-0.094-0.694-0.281-0.883
				c-0.187-0.188-0.479-0.281-0.879-0.281h-1.961V32.153z"/>
			<path fill="#171747" d="M169.707,34.812c0,0.13-0.064,0.194-0.193,0.194h-3.498c-0.129,0-0.193-0.064-0.193-0.194v-5.458
				c0-0.129,0.064-0.193,0.193-0.193h3.498c0.129,0,0.193,0.064,0.193,0.193c0,0.13-0.064,0.194-0.193,0.194h-3.305v2.3h2.219
				c0.129,0,0.193,0.064,0.193,0.193c0,0.13-0.064,0.194-0.193,0.194h-2.219v2.383h3.305
				C169.642,34.619,169.707,34.683,169.707,34.812z"/>
		</g>
	</g>
</g>
</svg>
