<svg xmlns="http://www.w3.org/2000/svg" width="44" height="44" viewBox="0 0 44 44">
  <g id="seller" transform="translate(-258 203)">
    <rect id="Rectangle_52" data-name="Rectangle 52" width="44" height="44" transform="translate(258 -203)" fill="none"/>
    <g id="seller-2" data-name="seller" transform="translate(258 -203)">
      <g id="Group_65" data-name="Group 65" transform="translate(4 4)">
        <g id="Group_64" data-name="Group 64">
          <path style="fill:#fff;" id="Path_30" data-name="Path 30" d="M24.534,19.19A10.095,10.095,0,1,0,15.258,5.1a6.727,6.727,0,0,0-1.413-.164,7.968,7.968,0,0,0-7.72,8.195v3.088a12.087,12.087,0,0,0,1.909,6.326l-.6,1.809a.59.59,0,0,0,.007.437,25.133,25.133,0,0,0-6.9,2.71A2.77,2.77,0,0,0-1,30v4.038a.561.561,0,0,0,.594.594H28.1a.647.647,0,0,0,.653-.594V30.056a2.77,2.77,0,0,0-1.544-2.494,25.457,25.457,0,0,0-6.934-2.714.774.774,0,0,0,.046-.493l-.625-1.876a12.471,12.471,0,0,0,1.56-3.835A10.1,10.1,0,0,0,24.534,19.19Zm0-19a8.907,8.907,0,1,1-8.907,8.907A8.9,8.9,0,0,1,24.534.188ZM8.62,24.475l.238-.772a9.193,9.193,0,0,0,1.267,1.208c.049.039.1.077.148.115l.01.008a6.9,6.9,0,0,0,1.223.744,6.1,6.1,0,0,0,1.338.467l-1.368,2.394-2.5-3.748a1.258,1.258,0,0,0-.183-.155Zm5.255,2.531,1.3,2.279h-2.6ZM.188,30a1.648,1.648,0,0,1,.831-1.425A23.793,23.793,0,0,1,8.085,25.9L10.8,29.97l-.992,3.471H.188ZM11.1,33.441l.848-2.969h3.8l.831,2.969H11.1ZM27.5,30v3.444h-9.62L16.9,30.009l2.724-4.156a22.9,22.9,0,0,1,6.985,2.659A1.75,1.75,0,0,1,27.5,30Zm-8.432-5.582L16.234,28.67l-1.4-2.448a7,7,0,0,0,4-2.556Zm-.459-2.466a.55.55,0,0,0-.076.09,6.15,6.15,0,0,1-4.366,3.074h0l-.14.009H14l-.126,0c-1.654-.013-3.363-1.139-4.662-3.087A.577.577,0,0,0,9,21.85a10.979,10.979,0,0,1-1.686-5.629V13.133a6.779,6.779,0,0,1,6.532-7.007,5.793,5.793,0,0,1,1,.117q-.042.142-.08.286a9.314,9.314,0,0,0-.325,2.3s0,.007,0,.01c0,.085,0,.17,0,.255,0,.111,0,.221.006.331,0,.026,0,.053,0,.079q.006.15.016.3c0,.009,0,.018,0,.027a10.088,10.088,0,0,0,5.672,8.356A11.408,11.408,0,0,1,18.612,21.95Z" transform="translate(1 1)"/>
          <path style="fill:#fff;" id="Path_31" data-name="Path 31" d="M263.711,49.208l1.781,1.781a.574.574,0,0,0,.831,0l.178-.178v3.325a.561.561,0,0,0,.594.594h7.126a.561.561,0,0,0,.594-.594V50.812l.178.178a.574.574,0,0,0,.831,0l1.781-1.781a.574.574,0,0,0,0-.831l-6.532-6.532a.574.574,0,0,0-.831,0l-6.532,6.532A.574.574,0,0,0,263.711,49.208Zm9.917,4.335H267.69V49.624l2.969-2.969,2.969,2.969v3.919Zm-2.969-10.451,5.7,5.7-.95.95-.772-.772h0l-3.563-3.563h0a.327.327,0,0,0-.3-.178h-.119a.539.539,0,0,0-.416.178l-3.563,3.563h0l-.772.772-.95-.95Z" transform="translate(-245.125 -38.698)"/>
        </g>
      </g>
    </g>
  </g>
</svg>
