<?xml version="1.0" encoding="utf-8"?>
<!-- Generator: Adobe Illustrator 17.0.0, SVG Export Plug-In . SVG Version: 6.00 Build 0)  -->
<!DOCTYPE svg PUBLIC "-//W3C//DTD SVG 1.1//EN" "http://www.w3.org/Graphics/SVG/1.1/DTD/svg11.dtd">
<svg version="1.1" id="Layer_1" xmlns="http://www.w3.org/2000/svg" xmlns:xlink="http://www.w3.org/1999/xlink" x="0px" y="0px"
	 width="256px" height="256px" viewBox="0 0 256 256" enable-background="new 0 0 256 256" xml:space="preserve">
<g>
	<g>
		<path d="M191.563,236.357c-1.945,0-3.72-0.832-4.872-2.284c-0.003-0.003-0.005-0.006-0.008-0.01
			c-1.726,0.37-3.421-0.003-4.689-0.913c-0.15,0.063-0.3,0.126-0.451,0.187l-0.783,0.324c-0.829,0.344-1.686,0.702-2.613,1.026
			c-0.961,0.337-1.917,0.507-2.839,0.507c-1.479,0-3.627-0.444-5.649-2.499c-0.134-0.043-0.343-0.097-0.626-0.14
			c-0.565-0.086-1.559-0.02-2.586,0.067l-0.482,0.04c-6.761,0.55-13.684-0.223-20.557-2.292c-2.154-0.649-7.199-2.168-9.453-7.56
			c-1.136-2.715-1.211-5.209-0.224-7.412c0.981-2.188,2.866-3.775,5.603-4.715l0.114-0.04c0.489-0.169,1.227-0.426,2.142-0.525
			c0.483-0.052,0.9-0.098,1.431-1.63c0.752-2.17,0.768-4.291,0.05-6.486c-0.162-0.496-0.486-1.142-1.654-2.153
			c-1.956-1.698-3.558-3.538-4.761-5.472c-1.265-2.034-2.681-6.031,2.024-9.967c0.636-0.532,0.697-1.389,0.694-1.733
			c-0.028-3.3-0.612-6.35-1.738-9.065c-0.164-0.399-0.402-0.827-0.705-1.28c-3.708-0.009-6.85-1.697-9.09-4.885
			c-0.525-0.748-1.025-1.512-1.524-2.278c-0.334-0.512-0.668-1.025-1.012-1.53c-0.396-0.582-1.067-1.083-2.394-1.787
			c-2.501-1.328-4.962-2.739-7.364-4.137c-0.652,3.103-1.454,6.115-2.17,8.8c-0.4,1.502-1.147,2.748-1.826,3.769
			c-2.121,3.187-4.844,3.857-6.754,3.857c-0.503,0-1.019-0.045-1.559-0.135c0.377,0.911,0.834,1.747,1.417,2.502
			c1.317,1.707,2.128,4.023,2.168,6.199c0.039,2.082-0.311,4.039-0.62,5.765l-0.079,0.442c-0.619,3.492-3.186,6.027-6.7,6.616
			c-3.084,0.522-5.977-0.561-7.811-2.85c-2.018,1.148-4.347,1.786-6.791,1.786c-2.686,0-5.28-0.79-7.502-2.284
			c-0.409-0.276-0.948-0.53-2.113-0.53c-0.763,0-1.63,0.105-2.698,0.263c-0.641,0.095-1.363,0.27-2.127,0.455
			c-0.52,0.126-1.039,0.251-1.561,0.362c-0.817,0.173-1.552,0.257-2.247,0.257c-3.244,0-5.651-1.735-7.153-5.158l-0.265-0.608
			c-0.433-0.998-0.844-1.947-1.293-2.652c-0.022,0.007-0.045,0.015-0.069,0.022c-0.609,0.204-1.255,0.307-1.925,0.307
			c-1.453,0-3.514-0.541-4.94-2.059c-1.722-1.829-5.752-6.107-4.134-12.428c0.001-0.095-0.008-0.369-0.125-0.932
			c-0.51-2.463-1.038-4.631-1.608-6.612c-0.084-0.1-0.175-0.195-0.261-0.293l-0.321-0.366c-0.367-0.427-0.756-0.834-1.144-1.243
			c-0.576-0.607-1.171-1.235-1.766-1.955c-1.657-2.008-1.81-3.941-1.647-5.209c0.148-1.153,0.687-2.772,2.366-4.196
			c0.002-0.073,0.003-0.159,0.002-0.259l-0.008-0.8c0-0.061-0.001-0.123-0.001-0.186c-0.283-0.113-0.59-0.237-0.925-0.375
			c-0.046-0.018-0.154-0.052-0.392-0.09c-2.162,3.475-4.83,4.226-6.742,4.227c-0.957,0-1.929-0.194-2.888-0.575
			c-4.239-1.686-6.323-6.327-4.847-10.797c0.505-1.529,1.036-3.047,1.567-4.566c0.554-1.583,1.108-3.166,1.629-4.76
			c-0.002-0.014-0.005-0.029-0.009-0.045c-0.139-0.696-0.332-1.434-0.536-2.215c-0.234-0.896-0.476-1.821-0.673-2.815
			c-0.375-1.883-0.227-4.682,2.605-7.319c0.808-0.753,1.646-1.757,2.635-3.162c0,0,0,0,0,0c0.005,0,0.027-0.152-0.052-0.523
			c-0.523-2.465-0.504-4.76,0.054-6.864c-0.507,0.087-1.03,0.123-1.605,0.097c-3.589-0.158-6.385-2.639-7.296-6.476
			c-0.075-0.316-0.139-0.635-0.198-0.954c-1.43-0.044-2.925-0.113-4.53-0.21c-1.025-0.061-2.07-0.302-3.195-0.735
			c-2.676-1.028-3.647-2.832-3.989-4.164c-0.284-1.104-0.346-2.699,0.692-4.462c-4.403-0.685-6.345-4.581-7.433-6.765
			c-2.345-4.704-4.572-9.34-6.047-14.325c-2.193-7.412-1.696-14.878,1.478-22.19l3.175-7.317l6.195,7.314
			c0.971,1.134,1.889,2.206,2.796,3.37c1.387,1.779,2.003,4.792,0.5,7.11c-0.279,0.43-0.214,1.335-0.086,2.777
			c0.027,0.3,0.053,0.601,0.076,0.903c0.177,2.318,0.835,2.445,1.832,2.636l4.278,0.821l-0.267,4.347
			c-0.037,0.601-0.081,1.188-0.125,1.767c-0.05,0.665-0.099,1.308-0.131,1.926c1.791,0.329,3.9,0.678,6.025,0.901
			c0.772,0.081,1.647-0.044,2.649-0.163l0.458-0.054c6.773-0.786,12.637-0.224,18.107,1.72c3.083,1.096,5.659,3.154,7.657,6.118
			c2.225,3.302,3.699,6.998,4.378,10.986c0.208,1.215,0.025,2.23-0.084,2.836L60.984,96.5c-0.045,0.363-0.099,0.731-0.156,1.101
			c0.353,0.131,0.691,0.284,1.013,0.458c0.958-0.301,1.988-0.458,3.058-0.458c2.969,0,5.73,1.247,7.386,3.337
			c1.024,1.291,1.57,2.944,1.499,4.535c-0.134,2.965-1.364,5.555-3.33,7.392c0.072,0.287,0.127,0.58,0.165,0.877
			c0.742-0.231,1.484-0.508,2.225-0.831c1.066-0.465,2.643-1.505,4.023-5.156c0.425-1.124,0.795-2.304,1.188-3.553
			c0.321-1.024,0.643-2.047,0.998-3.06c0.332-0.949,0.738-1.762,1.095-2.48c0.123-0.248,0.247-0.495,0.364-0.745l1.58-3.388
			l7.794,1.245l0.325,2.428c0.152-0.49,0.33-0.977,0.533-1.461c1.512-3.594,3.091-7.195,4.571-10.552
			c0.403-0.914,0.838-1.728,1.258-2.515l0.151-0.285c-6.597-3.81-8.881-9.177-6.983-16.404c0.685-2.608,1.619-5.056,2.522-7.423
			c0.335-0.878,0.67-1.755,0.988-2.636c0.346-0.955,0.708-1.905,1.07-2.854c0.504-1.322,0.98-2.571,1.411-3.831
			c1.027-3.001,2.804-5.639,5.432-8.064c3.776-3.483,6.302-6.468,8.191-9.678c1.775-3.017,4.334-5.57,7.403-7.384
			c2.07-1.224,4.047-1.82,6.044-1.82c2.069,0,4.041,0.646,5.863,1.92c0.141-0.007,0.381-0.042,0.765-0.171
			c1.281-0.433,2.761-0.968,4.005-1.64c3.167-1.71,6.466-2.574,10.088-2.641c0.384-0.007,0.769-0.011,1.152-0.011
			c5.056,0,9.484,0.65,13.539,1.986c3.546,1.169,6.092,3.179,7.784,6.147c0.883,1.549,2.448,3.328,6.749,3.343
			c6.725,0.023,12.931,1.581,18.635,3.261c0.816,0.241,1.69,0.446,2.617,0.663c0.467,0.109,0.937,0.22,1.406,0.336l3.767,0.93v3.522
			c1.213-0.541,2.374-0.696,3.308-0.696c1.197,0,2.404,0.246,3.691,0.753c1.471,0.58,2.945,1.152,4.419,1.725
			c4.421,1.717,8.992,3.493,13.451,5.457c3.033,1.336,5.746,3.059,8.37,4.724l1.119,0.708c1.418,0.895,2.692,2.13,4.009,3.889
			c1.538,2.059,1.606,3.996,1.393,5.259c-0.217,1.28-0.939,3.119-3.145,4.607c-0.173,0.117-0.346,0.229-0.521,0.338
			c3.491,7.22,4.756,14.846,5.881,21.628l0.861,5.189l-5.231,0.549c-0.581,0.061-1.154,0.132-1.724,0.202
			c-1.377,0.169-2.801,0.344-4.304,0.397c-1.328,0.046-2.217,0.375-2.927,1.165c3.174,1.089,6.02,2.124,8.653,3.149
			c2.516,0.979,4.975,2.095,7.31,3.317c1.86,0.973,3.44,2.686,4.228,4.581c0.602,1.446,0.94,2.875,1.238,4.136
			c0.097,0.407,0.193,0.815,0.299,1.218c0.279,1.063,0.546,2.132,0.813,3.199c0.564,2.254,1.097,4.382,1.74,6.476
			c1.231,4.004,1.84,8.335,1.919,13.629c0.034,2.291,0.454,4.498,1.284,6.748c2.568,6.959,1.033,13.734-4.322,19.077
			c-0.42,0.419-0.854,0.822-1.291,1.225c-0.408,0.376-0.819,0.751-1.203,1.15c-0.223,0.232-0.346,0.395-0.412,0.492
			c0.03,0.12,0.096,0.332,0.24,0.656c0.316,0.705,0.647,1.408,0.977,2.11c0.605,1.284,1.23,2.612,1.796,4.012
			c1.128,2.787,1.986,5.777,0.632,8.755c-1.356,2.978-4.192,4.302-7.055,5.289l-0.328,0.112c-0.793,0.273-1.557,0.535-2.287,0.811
			c-0.266,1.073-0.707,1.946-1.053,2.628c-0.077,0.153-0.155,0.305-0.225,0.457c-0.408,0.874-0.827,1.743-1.247,2.612
			c-0.571,1.183-1.143,2.367-1.682,3.565c-0.204,0.456-0.4,1.014-0.606,1.605c-0.212,0.607-0.427,1.213-0.67,1.807
			c-1.545,3.776-4.203,6.431-7.9,7.892c-0.142,0.057-0.284,0.115-0.428,0.177c0.805,2.598,0.381,5.409-1.3,7.969
			c-0.004,0.019-0.009,0.038-0.014,0.057c-0.12,0.493-0.224,0.992-0.329,1.49c-0.163,0.777-0.328,1.553-0.531,2.319
			c-1.069,4.047-3.872,6.845-7.688,7.673c-2.307,0.499-4.636,0.952-6.887,1.391c-1.68,0.327-3.36,0.654-5.036,1.001
			c-0.079,0.016-0.185,0.063-0.224,0.089c-0.677,0.448-1.336,0.929-1.996,1.409c-1.388,1.008-2.824,2.052-4.507,2.946
			c-2.434,1.292-5.074,1.859-6.848,2.173C192.437,236.318,191.993,236.357,191.563,236.357z M195.181,224.543
			c0.11,0.189,0.206,0.373,0.289,0.556c0.945-0.545,1.919-1.252,2.942-1.996c0.779-0.566,1.559-1.131,2.359-1.659
			c1.099-0.727,2.37-1.253,3.673-1.525c1.719-0.355,3.438-0.69,5.156-1.025c2.201-0.43,4.478-0.873,6.681-1.35
			c0.005-0.001,0.009-0.001,0.012-0.001h0.001c0.046-0.081,0.125-0.249,0.197-0.523c0.16-0.602,0.284-1.21,0.412-1.819
			c0.128-0.606,0.255-1.21,0.403-1.811c0.219-0.896,0.537-1.942,1.231-2.961c-1.759-1.961-1.902-3.896-1.705-5.187
			c0.202-1.32,0.944-3.175,3.332-4.512c1.411-0.79,3.065-1.691,4.866-2.403c1.151-0.455,1.861-1.181,2.372-2.429
			c0.177-0.433,0.33-0.879,0.486-1.324c0.254-0.728,0.542-1.552,0.921-2.397c0.577-1.283,1.187-2.549,1.798-3.813
			c0.401-0.829,0.801-1.659,1.19-2.493c0.115-0.246,0.239-0.492,0.364-0.74c0.086-0.169,0.197-0.389,0.26-0.529
			c0.375-2.975,2.105-5.243,4.894-6.404c1.296-0.539,2.572-0.977,3.806-1.401l0.322-0.111c0.285-0.099,0.527-0.187,0.732-0.266
			c-0.072-0.198-0.16-0.427-0.267-0.691c-0.463-1.148-1.004-2.296-1.576-3.511c-0.358-0.76-0.714-1.519-1.057-2.284
			c-2.004-4.482-1.306-8.538,2.072-12.056c0.557-0.581,1.102-1.083,1.628-1.568c0.342-0.314,0.683-0.629,1.012-0.957
			c2.669-2.663,3.274-5.245,2.024-8.634c-1.225-3.32-1.844-6.601-1.895-10.031c-0.065-4.329-0.536-7.782-1.483-10.866
			c-0.72-2.344-1.31-4.701-1.88-6.98c-0.258-1.031-0.517-2.062-0.786-3.09c-0.127-0.481-0.242-0.966-0.357-1.451
			c-0.202-0.856-0.395-1.671-0.636-2.333c-1.947-1.009-3.994-1.933-6.091-2.748c-3.007-1.17-6.323-2.361-10.135-3.642
			c-0.437-0.147-1.085-0.25-1.833-0.37c-0.491-0.078-0.993-0.16-1.508-0.259l-6.596-1.276l3.168-5.924
			c0.246-0.461,0.491-0.905,0.73-1.341c0.465-0.847,0.905-1.647,1.267-2.408c2.473-5.188,6.771-8.033,12.431-8.23
			c0.022,0,0.045-0.001,0.067-0.002c-0.954-5.069-2.267-10.328-4.739-14.954c-0.351-0.657-0.578-1.263-0.76-1.751
			c-0.056-0.149-0.11-0.299-0.171-0.445c-1.174-2.829-0.337-5.762,2.021-7.522c-2.317-1.471-4.518-2.851-6.776-3.846
			c-4.258-1.876-8.725-3.611-13.044-5.288c-1.344-0.522-2.687-1.044-4.028-1.571c-1.484,1.35-3.272,1.827-4.291,2.099
			c-0.785,0.209-1.558,0.315-2.298,0.315c0,0,0,0-0.001,0c-3.642,0-6.466-2.564-7.028-6.38c-0.062-0.424-0.102-0.839-0.126-1.244
			c-0.216-0.059-0.433-0.12-0.651-0.185c-5-1.473-10.383-2.838-15.867-2.857c-6.926-0.023-12.224-2.908-15.323-8.343
			c-0.376-0.66-0.909-1.193-2.28-1.645c-3.038-1.001-6.452-1.488-10.437-1.488c-0.322,0-0.646,0.003-0.97,0.009
			c-2.001,0.037-3.82,0.512-5.562,1.452c-1.896,1.024-3.865,1.741-5.54,2.308c-3.568,1.207-6.965,0.805-9.592-1.078
			c-0.149-0.107-0.235-0.144-0.26-0.153c-0.004,0.012-0.304,0.063-0.951,0.446c-1.652,0.976-2.965,2.281-3.905,3.878
			c-2.371,4.03-5.552,7.823-10.013,11.937c-1.387,1.28-2.295,2.585-2.775,3.988c-0.487,1.423-1.016,2.812-1.529,4.154
			c-0.342,0.897-0.685,1.795-1.012,2.698c-0.338,0.934-0.692,1.863-1.046,2.791c-0.847,2.221-1.647,4.318-2.196,6.41
			c-0.713,2.715-0.491,3.686,2.435,5.352c0.223,0.127,0.446,0.25,0.67,0.373c0.498,0.274,0.995,0.55,1.479,0.846
			c3.326,2.033,4.496,5.386,3.13,8.97c-0.338,0.886-0.759,1.593-1.097,2.16c-0.105,0.177-0.213,0.353-0.308,0.534l-0.319,0.601
			c-0.35,0.656-0.681,1.276-0.935,1.851c-1.463,3.315-3.02,6.869-4.503,10.393c-0.199,0.472-0.339,0.974-0.393,1.413
			c-0.056,0.442-0.075,0.985-0.095,1.559c-0.035,1.01-0.075,2.154-0.317,3.393c-0.946,4.859-4.153,7.635-6.729,9.866
			c-0.543,0.471-1.088,0.939-1.6,1.43c-1.116,1.068-2.553,1.656-4.047,1.656c-1.703,0-3.271-0.765-4.374-2.01
			c-1.566,1.811-3.408,3.183-5.517,4.103c-4.694,2.046-9.559,2.858-14.321,2.388c-3.362-0.331-6.328-2.076-8.137-4.788
			c-1.618-2.425-2.193-5.424-1.644-8.407l-4.25-2.562l5.254-1.015l0.473-1.554c-2.155-1.204-3.547-3.539-3.523-6.316
			c0.011-1.25,0.186-2.386,0.342-3.388c0.056-0.36,0.112-0.719,0.157-1.079c0.026-0.208,0.06-0.418,0.097-0.627
			c-0.476-2.435-1.374-4.61-2.74-6.635c-0.81-1.201-1.687-1.939-2.76-2.32c-4.02-1.43-8.411-1.821-13.648-1.214l-0.428,0.05
			c-0.45,0.054-0.928,0.11-1.427,0.157c0.259,0.963,0.301,2.005,0.108,3.05c-0.279,1.515-1.013,2.735-1.647,3.552
			c2.524,0.096,4.437,0.973,5.717,2.617c0.123-0.205,0.255-0.409,0.396-0.612c0.251-0.362,2.545-3.534,5.959-3.534
			c0.615,0,1.218,0.104,1.791,0.307c2.239,0.8,4.692,3.156,5.053,6.117c0.279,2.269,0.32,4.709,0.125,7.457
			c-0.124,1.763-0.468,4.351-2.006,6.456c-0.42,0.575-0.797,1.296-0.394,3.192c0.66,3.111,0.142,5.899-1.541,8.288
			c-0.766,1.087-1.905,2.629-3.338,4.08c0.082,0.328,0.169,0.663,0.259,1.006c0.23,0.881,0.468,1.793,0.664,2.77
			c0.236,1.179,0.397,2.955-0.178,4.73c-0.439,1.354-0.901,2.701-1.369,4.045c0.933-0.262,1.916-0.364,2.973-0.285
			c1.277,0.093,2.789,0.274,4.319,0.905c0.365,0.151,0.697,0.284,0.996,0.404c5.131,2.058,6.013,4.109,6.058,9.228l0.008,0.766
			c0.026,2.108-0.386,3.913-1.228,5.396c0.348,0.371,0.691,0.745,1.022,1.13l0.226,0.257c0.688,0.777,1.728,1.952,2.231,3.66
			c0.693,2.352,1.322,4.904,1.923,7.802c0.434,2.095,0.443,3.804,0.027,5.378c-0.108,0.411-0.206,0.782,0.524,1.777
			c3.492-0.546,6.433,0.717,8.652,3.689c1.092,1.461,1.817,3.015,2.438,4.433c0.012-0.003,0.024-0.006,0.036-0.009
			c0.901-0.218,1.922-0.464,3.008-0.626c1.299-0.192,2.701-0.37,4.149-0.37c2.925,0,5.426,0.725,7.643,2.217
			c0.589,0.396,1.253,0.597,1.971,0.597c1.232,0,2.758-0.669,3.388-2.162l4.216-9.972c-0.173-0.735-0.331-1.46-0.486-2.167
			c-0.122-0.559-0.245-1.121-0.374-1.686l-1.571-6.845l6.975,0.816c0.163,0.018,0.31,0.032,0.446,0.045
			c0.43,0.04,0.965,0.088,1.572,0.229l0.231,0.053c1.498,0.348,3.04,0.706,4.581,1.094c0.006-0.015,0.011-0.026,0.014-0.035
			c0.735-2.763,1.58-5.935,2.198-9.04c0.218-1.095,0.316-2.349,0.421-3.677c0.056-0.702,0.112-1.416,0.186-2.138l0.82-8.057
			l7.327,4.745c0.194,0.129,0.357,0.241,0.528,0.34c1.147,0.662,2.291,1.329,3.435,1.998c2.887,1.687,5.872,3.43,8.829,5
			c1.984,1.053,4.241,2.466,5.942,4.967c0.379,0.557,0.748,1.122,1.117,1.687c0.438,0.671,0.875,1.342,1.335,1.998
			c0.472,0.672,0.722,0.672,1.011,0.672c0.191-0.006,0.304-0.008,0.416-0.008c3.013,0,5.667,1.403,7.474,3.95
			c0.811,1.141,1.464,2.305,1.94,3.455c1.614,3.895,2.452,8.192,2.492,12.768c0.027,3.085-1.043,5.984-2.981,8.187
			c0.476,0.539,1.016,1.072,1.607,1.585c1.457,1.263,3.519,3.319,4.581,6.559c1.395,4.269,1.359,8.578-0.105,12.809
			c-1.973,5.695-5.914,7.515-8.652,8.072c0.436,0.325,1.179,0.672,2.533,1.081c5.691,1.714,11.368,2.351,16.902,1.904l0.448-0.038
			c1.48-0.125,3.371-0.224,4.914,0.013c1.583,0.242,3.691,0.82,5.361,2.19c0.345-0.138,0.7-0.285,1.063-0.437l0.846-0.349
			c0.341-0.139,0.681-0.284,1.022-0.43c0.779-0.333,1.585-0.676,2.467-0.99c1.972-0.704,3.948-0.477,5.432,0.469
			c0.074-0.037,0.147-0.074,0.221-0.11c0.479-0.235,0.972-0.441,1.462-0.641l4.713-1.997L195.181,224.543z"/>
	</g>
	<g>
		<path d="M92.051,107.558l-5.221-3.255c-2.759-1.72-4.404-4.277-4.758-7.393c-0.115-1.009-0.412-1.633-1.135-2.385
			c-1.352-1.404-2.187-2.956-2.923-4.327c-0.229-0.426-0.457-0.853-0.703-1.263c-0.274-0.456-0.537-0.918-0.823-1.424l-2.542-4.445
			l3.465-2.631c1.489-1.131,3.826-2.634,6.918-2.634c0.525,0,1.058,0.044,1.583,0.132c2.079,0.346,3.783,1.425,4.797,3.039
			c0.107,0.171,0.206,0.346,0.296,0.525c1.761,0.731,3.495,2.3,4.575,5.438c1.421,4.125,1.284,8.119-0.407,11.867
			c-0.206,0.456-0.4,1.035-0.624,1.706c-0.135,0.402-0.275,0.819-0.43,1.255L92.051,107.558z"/>
	</g>
	<g>
		<path d="M108.921,191.084c-2.978,0-5.057-2.531-5.345-4.978c-0.207-1.744-0.39-3.493-0.573-5.241l-0.531-5.036l6.457-2.91
			l2.433,1.686c0.572,0.336,1.637,0.96,2.464,2.17c0.897,1.31,1.922,2.857,2.713,4.618c1.114,2.478,0.512,6.306-2.163,8.05
			c-1.414,0.92-2.843,1.209-3.887,1.419c-0.158,0.032-0.315,0.063-0.469,0.098l-0.539,0.122L108.921,191.084z"/>
	</g>
</g>
</svg>
