<svg xmlns="http://www.w3.org/2000/svg" width="21" height="21" viewBox="0 0 21 21">
  <g id="bathroom" transform="translate(-178 138)">
    <rect id="Rectangle_52" data-name="Rectangle 52" width="21" height="21" transform="translate(178 -138)" fill="none"/>
    <g id="bathroom-2" data-name="bathroom" transform="translate(179.001 -135.999)">
      <path id="Path_9" data-name="Path 9" d="M152.827,128.515a.265.265,0,1,0-.53,0v.283a.265.265,0,0,0,.53,0Zm0,0" transform="translate(-146.927 -123.728)" fill="#707070"/>
      <path id="Path_10" data-name="Path 10" d="M152.827,160.577a.265.265,0,1,0-.53,0v.283a.265.265,0,0,0,.53,0Zm0,0" transform="translate(-146.927 -154.66)" fill="#707070"/>
      <path id="Path_11" data-name="Path 11" d="M152.562,192.375a.265.265,0,0,0-.265.265v.283a.265.265,0,0,0,.53,0v-.283A.265.265,0,0,0,152.562,192.375Zm0,0" transform="translate(-146.927 -185.591)" fill="#707070"/>
      <path id="Path_12" data-name="Path 12" d="M192.9,128.515a.265.265,0,1,0-.53,0v.283a.265.265,0,0,0,.53,0Zm0,0" transform="translate(-185.591 -123.728)" fill="#707070"/>
      <path id="Path_13" data-name="Path 13" d="M192.9,160.577a.265.265,0,1,0-.53,0v.283a.265.265,0,0,0,.53,0Zm0,0" transform="translate(-185.591 -154.66)" fill="#707070"/>
      <path id="Path_14" data-name="Path 14" d="M192.64,192.375a.265.265,0,0,0-.265.265v.283a.265.265,0,1,0,.53,0v-.283A.265.265,0,0,0,192.64,192.375Zm0,0" transform="translate(-185.592 -185.591)" fill="#707070"/>
      <path id="Path_15" data-name="Path 15" d="M112.749,128.515a.265.265,0,1,0-.53,0v.283a.265.265,0,0,0,.53,0Zm0,0" transform="translate(-108.262 -123.728)" fill="#707070"/>
      <path id="Path_16" data-name="Path 16" d="M112.749,160.577a.265.265,0,1,0-.53,0v.283a.265.265,0,0,0,.53,0Zm0,0" transform="translate(-108.262 -154.66)" fill="#707070"/>
      <path id="Path_17" data-name="Path 17" d="M112.483,192.375a.265.265,0,0,0-.265.265v.283a.265.265,0,1,0,.53,0v-.283A.265.265,0,0,0,112.483,192.375Zm0,0" transform="translate(-108.262 -185.591)" fill="#707070"/>
      <path id="Path_18" data-name="Path 18" d="M17.366,9.61H4.2V9.292h.018a.265.265,0,1,0,0-.53H3.657a.265.265,0,1,0,0,.53h.018V9.61H2.791V1.819a1.29,1.29,0,1,1,2.579,0V2A1.964,1.964,0,0,0,3.693,3.674H3.374a.265.265,0,1,0,0,.53H7.9a.265.265,0,1,0,0-.53H7.578A1.964,1.964,0,0,0,5.9,2V1.819a1.82,1.82,0,1,0-3.639,0V9.61H1.377V9.292H1.4a.265.265,0,1,0,0-.53H.83a.265.265,0,1,0,0,.53H.847V9.61H.688a.689.689,0,1,0,0,1.378H1.13v1.148a4.479,4.479,0,0,0,.8,2.562H1.678a.265.265,0,0,0,0,.53h.684A4.521,4.521,0,0,0,3.9,16.293a1.438,1.438,0,0,1-.227.258,1.977,1.977,0,0,1-1.395.411.265.265,0,0,0-.065.526,2.49,2.49,0,0,0,1.807-.537,1.99,1.99,0,0,0,.394-.478,4.492,4.492,0,0,0,1.224.169h6.784a4.492,4.492,0,0,0,1.224-.169,1.99,1.99,0,0,0,.394.478,2.406,2.406,0,0,0,1.577.549,1.975,1.975,0,0,0,.23-.012.265.265,0,0,0-.066-.526,1.956,1.956,0,0,1-1.39-.408,1.428,1.428,0,0,1-.23-.261,4.522,4.522,0,0,0,1.535-1.064h.684a.265.265,0,0,0,0-.53h-.254a4.479,4.479,0,0,0,.8-2.562V10.988h.442a.689.689,0,1,0,0-1.378ZM7.041,3.674H4.229a1.431,1.431,0,0,1,2.812,0ZM3.14,15.229H4.23a2.623,2.623,0,0,1-.105.585,3.982,3.982,0,0,1-.985-.585Zm9.28.883H5.635a3.969,3.969,0,0,1-1.007-.129,3.184,3.184,0,0,0,.133-.754h8.532a3.177,3.177,0,0,0,.133.754,3.969,3.969,0,0,1-1.007.129Zm1.51-.3a2.623,2.623,0,0,1-.105-.585h1.09A3.981,3.981,0,0,1,13.93,15.814Zm3.437-5.355h-2.7a.265.265,0,0,0,0,.53h1.725v1.148a3.957,3.957,0,0,1-.938,2.562H2.6a3.957,3.957,0,0,1-.938-2.562V10.988h11.76a.265.265,0,0,0,0-.53H.688a.159.159,0,1,1,0-.318H17.366a.159.159,0,1,1,0,.318Zm0,0" fill="#707070"/>
    </g>
  </g>
</svg>
