<svg xmlns="http://www.w3.org/2000/svg" width="44" height="44" viewBox="0 0 44 44">
  <g id="guidance" transform="translate(-308 203)">
    <rect id="Rectangle_53" data-name="Rectangle 53" width="44" height="44" transform="translate(308 -203)" fill="none"/>
    <g id="house_1_" data-name="house(1)" transform="translate(310 -243.592)">
      <g id="Group_57" data-name="Group 57" transform="translate(0 46.592)">
        <path style="fill:#fff;" id="Path_26" data-name="Path 26" d="M39.948,77.633l-.027-.614a.569.569,0,0,0-1.136.05l.027.619V77.7a.409.409,0,0,1-.407.436H35.08V67.64l.858.3a3.908,3.908,0,0,1,2.6,3.437l.094,2.156a.569.569,0,0,0,1.136-.05l-.094-2.162v-.011a5.044,5.044,0,0,0-3.356-4.443l-1.588-.561L34.7,66.3l-4.742-1.676h0L29.9,64.6l-.027-.006a.927.927,0,0,0-.885.241l-.147.147-1.251-.628v-1.1a6.489,6.489,0,0,0,1.058-.917l.011-.012a6.416,6.416,0,0,0,1.624-3.086c.005-.029.011-.058.016-.087s.01-.06.014-.09q.011-.075.02-.151c0-.012,0-.024,0-.036.006-.054.011-.109.014-.163h.236a1.331,1.331,0,0,0,1.329-1.329V55.9a1.328,1.328,0,0,0-.017-.209,1.062,1.062,0,0,0,.132-.514v-.635a1.058,1.058,0,0,0-.758-1.018v-.09q0-.081,0-.162A6.065,6.065,0,0,0,29.6,49.229a5.927,5.927,0,0,0-3.534-1.8c-.02-.037-.043-.072-.066-.107l-.018-.026q-.035-.051-.073-.1l-.013-.017q-.048-.057-.1-.11l0,0q-.051-.051-.106-.1l-.012-.01a1.637,1.637,0,0,0-.243-.165l-.023-.013c-.043-.023-.086-.044-.131-.063l-.007,0c-.041-.017-.084-.032-.126-.046l-.035-.011c-.045-.014-.091-.026-.138-.036H24.96c-.045-.009-.09-.016-.136-.021l-.038,0c-.049,0-.1-.007-.148-.007H24.1c-.05,0-.1,0-.148.007l-.038,0c-.046.005-.091.012-.136.021H23.77c-.047.01-.093.022-.138.036l-.035.011c-.043.014-.085.029-.126.046l-.007,0c-.045.019-.088.04-.131.063l-.023.013c-.042.023-.083.048-.122.074h0c-.042.028-.082.058-.121.09l-.012.011q-.055.046-.106.1l0,0q-.052.052-.1.11l-.013.017q-.038.047-.073.1l-.018.026c-.023.035-.045.07-.066.107a5.928,5.928,0,0,0-3.534,1.8,6.05,6.05,0,0,0-1.192,1.811l-3.293-3.085a1.761,1.761,0,0,0-2.407,0L8.674,51.323V50.93a.844.844,0,0,0-.844-.843h0l-2.678,0a.845.845,0,0,0-.843.845l.007,4.494L.552,58.974a1.758,1.758,0,0,0,1.153,3.037h.054a1.745,1.745,0,0,0,1.2-.478l1.274-1.2.006,3.986a.568.568,0,0,0,.569.568h0a.569.569,0,0,0,.568-.569l-.007-5.054,8.082-7.614L16.7,54.691v.485c0,.033,0,.066,0,.1,0,.006,0,.012,0,.018a1.055,1.055,0,0,0,.125.4,1.33,1.33,0,0,0-.017.207v1.49a1.331,1.331,0,0,0,1.329,1.329h.235c0,.056.009.113.015.169,0,.016,0,.032.006.048q.008.07.018.141.006.042.013.085c.006.034.012.067.018.1q.02.1.044.21l.009.038c.011.047.024.094.036.141l.008.028a5.918,5.918,0,0,0,.421,1.079l.006.011q.106.21.229.414l.032.054.067.107.052.08.059.09q.054.08.111.158l.049.066.085.113.047.061q.059.075.12.148l.017.021c.045.053.09.106.137.158l.049.054.1.106.055.058q.06.062.122.122l.09.086.076.071.094.084.05.044a6.181,6.181,0,0,0,.527.408v1.085l-1.251.628-.147-.147a.925.925,0,0,0-.512-.259l-.064-.008-.064,0h-.065a.918.918,0,0,0-.176.027l-.033.007-.053.016-2.135.754-.006-4.044a.947.947,0,0,0-.946-.945h0l-4.447.006a.946.946,0,0,0-.945.948l.01,6.959,0,0-.045.053c-.024.028-.049.056-.072.085l-.043.055c-.023.029-.046.058-.069.087l-.042.057c-.022.03-.044.059-.065.089l-.04.059c-.021.03-.042.061-.062.091l-.038.061c-.02.031-.039.062-.058.093l-.036.062c-.018.032-.037.064-.055.1l-.034.065c-.017.032-.034.064-.051.1l-.033.069c-.015.032-.031.063-.046.1s-.021.047-.031.071-.029.064-.042.1-.02.049-.029.074-.026.064-.038.1-.018.051-.027.077-.023.064-.034.1-.017.053-.025.079-.021.064-.03.1-.015.054-.022.081-.018.064-.026.1-.013.055-.02.083-.016.065-.023.1-.011.057-.017.085-.013.065-.019.1-.01.059-.014.089-.011.064-.015.1-.008.061-.011.092-.008.063-.011.1-.005.062-.008.093-.005.058-.007.087L5.413,71.3a.023.023,0,0,1-.023-.023l0-3.429a.569.569,0,0,0-.569-.568h0a.569.569,0,0,0-.568.569l0,3.429a1.162,1.162,0,0,0,1.16,1.159h0l3.6,0-.227,5.2a1.546,1.546,0,0,0,1.542,1.639H38.406a1.546,1.546,0,0,0,1.542-1.639ZM30.783,57.389a.192.192,0,0,1-.192.192h-.227V56.235h.419ZM23.616,48.11l0-.006a.5.5,0,0,1,.115-.213l0,0a.5.5,0,0,1,.055-.051l.007-.005a.5.5,0,0,1,.131-.071l.011,0a.5.5,0,0,1,.07-.018l.013,0a.5.5,0,0,1,.076-.006h.537a.5.5,0,0,1,.076.006l.013,0a.493.493,0,0,1,.07.018l.011,0a.5.5,0,0,1,.131.071l.007.005a.5.5,0,0,1,.055.05l0,0a.5.5,0,0,1,.115.213l0,.006a.5.5,0,0,1,.015.118v1.918a.5.5,0,0,1-.5.5H24.1a.5.5,0,0,1-.5-.5V48.228h0A.5.5,0,0,1,23.616,48.11ZM7.537,51.224l0,1.168L5.45,54.36l-.005-3.134Zm10.028,1.082c-.011.058-.021.117-.031.176-.005.033-.009.066-.014.1-.007.054-.015.107-.021.161s-.009.09-.013.136-.008.085-.011.128q-.009.134-.013.268,0,.081,0,.162v.09h0a1.044,1.044,0,0,0-.1.036l-.032.014c-.029.013-.058.027-.085.043l-.013.006-3.384-3.17a.569.569,0,0,0-.779,0L2.184,60.706a.621.621,0,1,1-.852-.9L13.026,48.785a.622.622,0,0,1,.85,0l3.7,3.465C17.572,52.268,17.569,52.287,17.566,52.306Zm.581,5.276a.192.192,0,0,1-.192-.192V56.235h.419v1.347Zm-.307-2.661v-.3h.19a.569.569,0,0,0,.569-.569v-.618q0-.067,0-.133c0-.087.007-.173.014-.26,0-.022,0-.044.006-.066.006-.067.013-.133.022-.2,0-.022.006-.043.009-.065q.015-.106.035-.21l.009-.047c.017-.086.036-.171.058-.256h0a4.916,4.916,0,0,1,1.208-2.182,4.806,4.806,0,0,1,2.5-1.4v1.528A1.638,1.638,0,0,0,24.1,51.782h.537a1.638,1.638,0,0,0,1.636-1.636V48.618a4.807,4.807,0,0,1,2.5,1.4A4.93,4.93,0,0,1,30.138,53.3q0,.066,0,.133v.618a.569.569,0,0,0,.569.569h.19v.3Zm1.692,3.892,0-.026q-.008-.072-.012-.142l0-.023c0-.055,0-.109,0-.163V56.235h9.716v2.212c0,.054,0,.109,0,.164v.019q0,.073-.012.146l0,.026c-.006.053-.014.107-.022.161h0a5.508,5.508,0,0,1-2.138,3.292l-.023.017-.1.071-.056.038-.03.019-.1.066-.005,0a3.544,3.544,0,0,1-.977.42l-.059.015a4.132,4.132,0,0,1-2.708-.006,3.536,3.536,0,0,1-.968-.418h0l-.037-.024-.111-.071-.027-.018A5.451,5.451,0,0,1,19.532,58.813Zm2.17,6.538a.9.9,0,0,0,.579-.84v-.639A4.2,4.2,0,0,0,22.7,64a6.619,6.619,0,0,0,1.64.264,6.63,6.63,0,0,0,1.621-.257l.059-.015a4.2,4.2,0,0,0,.435-.134v.651a.894.894,0,0,0,.579.84l.911.457-.033.025-.076.055q-.072.052-.145.1l-.082.055q-.075.049-.151.1l-.077.047q-.093.055-.188.106l-.044.025q-.117.063-.238.119l-.065.029c-.059.027-.119.054-.179.079l-.087.035-.164.063-.091.033c-.057.02-.115.039-.172.057l-.083.026q-.114.034-.23.063l-.028.007c-.087.022-.174.041-.262.058l-.076.014c-.063.012-.126.023-.19.033l-.094.013-.178.022-.1.01c-.063.006-.127.01-.19.014l-.083,0c-.091,0-.183.007-.275.007s-.183,0-.275-.007l-.083,0c-.064,0-.127-.008-.19-.014l-.1-.01-.178-.022-.094-.013c-.064-.01-.127-.021-.19-.033l-.076-.014c-.088-.018-.175-.037-.262-.059l-.027-.007q-.116-.029-.23-.063l-.082-.026c-.058-.018-.116-.037-.173-.057l-.091-.032-.165-.063-.086-.035c-.061-.026-.121-.052-.181-.08l-.063-.029q-.121-.057-.239-.12l-.042-.023q-.1-.052-.191-.108l-.076-.046q-.077-.047-.153-.1l-.08-.054q-.074-.05-.147-.1l-.074-.054-.033-.026ZM10.331,78.135a.409.409,0,0,1-.407-.436v-.011l.276-6.307a3.913,3.913,0,0,1,1.069-2.446l.018-.017a3.929,3.929,0,0,1,1.288-.887l.03-.013c.064-.027.129-.052.194-.075l.858-.3V78.135ZM14.009,66.31l-1.588.561q-.089.032-.177.066l-.055.023-.043.018-.075.031-.081.038-.088.041-.082.041-.085.043-.076.042-.086.048-.074.045-.054.033-.008-5.809,4.065-.006.006,4.253-1.471.52Zm.785,11.825v-10.9l3.761-1.329.435,2.136a3.014,3.014,0,0,0,1.342,1.94L23.8,72.167v5.968Zm6.144-9.112a1.872,1.872,0,0,1-.833-1.2L19.836,66.5l.063.054a7,7,0,0,0,4.469,1.591,7.167,7.167,0,0,0,1.348-.128A6.963,6.963,0,0,0,28.9,66.5l-.269,1.319a1.871,1.871,0,0,1-.833,1.2l-3.43,2.158Zm13,9.112H24.937V72.167L28.4,69.985a3.013,3.013,0,0,0,1.342-1.94l.435-2.136,3.761,1.329Z" transform="translate(0 -46.592)"/>
      </g>
    </g>
  </g>
</svg>
