<svg height="436pt" viewBox="0 -18 436.89936 436" width="436pt" xmlns="http://www.w3.org/2000/svg"><path d="m180.683594 401.4375c-19.203125 0-49.203125-17.925781-49.566406-18.167969-1.132813-.75-2.386719-1.550781-3.722657-2.398437-12.425781-7.894532-33.222656-21.101563-33.222656-48.480469 0-23.546875-5.980469-29.527344-16.832031-40.378906-1.992188-1.988281-3.859375-3.734375-5.566406-5.332031-8.035157-7.515626-15.621094-14.613282-11.15625-28.023438.855468-2.550781 2.265624-6.230469 3.949218-10.625 5.4375-14.148438 14.539063-37.828125 14.539063-51.253906 0-7.9375-1.484375-11.03125-2.128907-12.007813h-70.148437c-3.773437 0-6.828125-3.050781-6.828125-6.824219v-18.832031c0-1.65625.601562-3.253906 1.691406-4.496093 1.144532-1.3125 28.453125-32.144532 60.792969-36.1875 27.726563-3.503907 54.898437 7.714843 62.265625 11.074218 3.667969-.433594 12.082031-1.472656 20.199219-2.800781 3.714843-.613281 7.230469 1.921875 7.832031 5.640625.605469 3.722656-1.914062 7.234375-5.640625 7.839844-11.089844 1.808594-22.316406 3.0625-22.789063 3.113281-1.300781.140625-2.625-.09375-3.800781-.679687-.285156-.140626-28.75-14.085938-56.375-10.636719-23.074219 2.882812-44.476562 23.523437-50.527343 29.820312v9.320313h64.746093c2.398438 0 14.363281 1.238281 14.363281 25.660156 0 15.960938-9.292968 40.144531-15.449218 56.152344-1.59375 4.152344-2.933594 7.625-3.738282 10.046875-1.539062 4.617187-.835937 5.90625 7.53125 13.734375 1.804688 1.683594 3.78125 3.539062 5.890626 5.644531 11.636718 11.640625 20.832031 20.835937 20.832031 50.035156 0 19.878907 15.539062 29.746094 26.890625 36.949219 1.421875.90625 2.757812 1.761719 3.972656 2.570312 13.324219 8.886719 39.445312 18.160157 44.425781 15.679688 2.972657-3.027344 3.722657-8.46875 3.21875-10.746094-4.554687-.386718-14.515625-4.242187-24.15625-42.800781-1.105469-4.441406-3.640625-7.128906-6.324219-9.972656-4.65625-4.941407-11.039062-11.707031-4.457031-24.875 8.582031-17.144531 34.988281-8.933594 47.667969-4.984375 1.292969.398437 2.386719.75 3.226562.992187 4.828126-2.574219 16.191407-13.414062 16.191407-19.320312 0-19.058594 42.183593-25.371094 47.921875-25.652344 1.050781-3.148437 1.050781-12.96875 1.050781-23.3125 0-20.535156 15.136719-23.375 24.183594-25.070313 3.054687-.566406 6.859375-1.277343 7.949219-2.367187.734374-.738281 1.472656-4.390625-.167969-9.511719-2.203125-6.878906-8.285157-14.851562-18.730469-16.59375-6.964844-1.144531-10.265625 1.992188-15.929688 8.144532-6.105468 6.628906-14.460937 15.707031-30.3125 10.429687-18.03125-6.007813-14.578124-21.835937-12.515624-31.296875 1.875-8.589844 2.371093-12.597656-.722657-14.917969-4.996093-3.753906-5.835937-3.355469-9.8125-1.527343-1.902343.878906-4.273437 1.964843-7.246093 2.699218-3.636719.882813-7.355469-1.347656-8.253907-5.007812-.894531-3.664063 1.34375-7.359375 5.007813-8.257813 1.699218-.414062 3.195312-1.101562 4.777344-1.835937 6.675781-3.078125 13.074218-4.992188 23.71875 3.007812 10.433593 7.820313 7.796874 19.921875 5.871093 28.753906-2.523437 11.558594-2.0625 13.582032 3.496094 15.433594 7.167969 2.375 9.910156-.171875 15.949219-6.726562 5.75-6.246094 13.601562-14.832032 28.21875-12.367188 16.503906 2.753906 26.054687 15.183594 29.484375 25.894532 3.019531 9.414062 1.796875 18.355468-3.183594 23.335937-4.070313 4.074219-9.671875 5.117187-15.089844 6.132813-9.691406 1.820312-13.042969 2.890624-13.042969 11.644531 0 23.835937 0 36.960937-14.363281 36.960937-8.667969 0-32.761719 7.414063-34.652343 12.300782.042968 14.453124-21.292969 32.898437-29.386719 32.898437-1.8125 0-3.65625-.574219-7.699219-1.832031-18.59375-5.78125-29.15625-6.445313-31.394531-1.941406-2.316407 4.632812-1.894531 5.085937 2.179687 9.398437 3.234375 3.4375 7.660156 8.136719 9.632813 16.035156 4.832031 19.328125 10.378906 30.382813 13.023437 32.519531 4.574219.300782 8.382813 3.148438 10.292969 7.753907 3.316406 8.015625.5625 19.640625-6.273437 26.476562-2.8125 2.816407-6.957032 3.949219-11.777344 3.949219zm6.957031-38.207031h.003906s0 0-.003906 0zm13.789063-67.632813"/><path d="m333.066406 156.824219c-2.058594 0-4.199218-.359375-6.390625-1.09375-2.371093-.789063-7.289062-1.222657-11.628906-1.601563-11.257813-.988281-21.886719-1.921875-24.742187-9.773437-1.636719-4.5.046874-9.300781 5.019531-14.265625 6.433593-6.441406 11.46875-10.121094 15.140625-12.816406 1.792968-1.304688 4.019531-2.941407 4.375-3.578126 0-2.734374.503906-5.476562 1.085937-8.648437.777344-4.238281 2.398438-13.050781-.007812-13.859375-2.925781-.972656-7.332031-.785156-11.242188-.652344-6.152343.25-12.507812.484375-15.484375-4.835937-2.867187-5.105469.566406-10.25 1.695313-11.945313 1.316406-1.972656 1.804687-3.226562 2.234375-4.324218 2.65625-6.800782 5.429687-7.410157 20.835937-10.75l9.816407-2.152344c33-7.328125 44.242187-7.328125 51.679687-7.328125 4.445313 0 6.519531 2.375 7.363281 3.789062 1.980469 3.332031.707032 6.519531-.199218 8.28125 1.707031.660157 5.089843 1.601563 11.519531 2.3125l4.710937.519531c21.15625 2.324219 30.820313 3.386719 35.625 10.292969 3.445313 4.945313 2.550782 10.914063 1.390625 15.558594-2.71875 10.875-10.09375 16.667969-16.605469 21.789063-3.691406 2.898437-7.175781 5.632812-9.4375 9.03125-2.15625 3.234374-3.183593 5.289062-4.089843 7.101562-2.519531 5.03125-4.214844 7.433594-12.148438 12.71875-1.832031 1.222656-3.777343 2.667969-5.75 4.132812-8.28125 6.140626-16.859375 12.488282-24.882812 9.613282-2.914063-1.039063-6.742188-3.726563-8.460938-10.597656-.582031-2.328126-1.164062-4.5625-1.730469-6.667969l-3.222656 7.515625c-.433594 1.171875-1.808594 4.398437-4.664062 7.25-3.292969 3.296875-7.355469 4.984375-11.804688 4.984375zm-27.605468-17.5625c3.167968.601562 7.679687.996093 10.777343 1.269531 5.582031.492188 10.855469.953125 14.753907 2.246094 2.519531.84375 3.496093.144531 4.222656-.589844.953125-.945312 1.484375-2.246094 1.488281-2.257812.058594-.179688.125-.355469.203125-.527344l10.761719-25.101563c1.113281-2.605469 3.679687-4.398437 6.554687-4.132812 2.835938.121093 5.296875 1.972656 6.195313 4.660156.148437.453125 3.707031 11.164063 7.316406 25.605469.078125.328125.164063.59375.238281.808594 2.808594-.867188 8.511719-5.09375 11.726563-7.480469 2.164062-1.605469 4.300781-3.1875 6.3125-4.527344 5.660156-3.78125 6.015625-4.488281 7.507812-7.464844.976563-1.957031 2.3125-4.628906 4.941407-8.570312 3.472656-5.210938 7.992187-8.765625 12.367187-12.199219 5.476563-4.300781 10.203125-8.019531 11.789063-14.351562.875-3.5.609374-4.492188.578124-4.59375-1.757812-1.734376-13.457031-3.019532-25.839843-4.378907l-4.726563-.519531c-13.53125-1.507812-20.496094-4.441406-23.300781-9.8125-.777344-1.496094-1.125-2.949219-1.191406-4.3125-7.359375.417969-19.0625 1.867188-41.402344 6.832031l-9.886719 2.160157c-5.070312 1.101562-9.246094 2.007812-11.09375 2.585937-.234375.601563-.535156 1.363281-.964844 2.261719 4.699219-.179688 10.398438-.320313 15.453126 1.375 13.652343 4.550781 10.699218 20.632812 9.113281 29.269531-.425781 2.308594-.863281 4.6875-.863281 5.886719 0 7.601562-4.839844 11.140625-9.960938 14.894531-3.222656 2.359375-7.601562 5.558594-13.070312 10.964844zm0 0"/><path d="m177.492188 177.941406c-2.007813 0-3.914063-.886718-5.210938-2.410156-6.296875-7.449219-61.554688-73.707031-61.554688-108.316406 0-36.8125 29.949219-66.765625 66.765626-66.765625 36.816406 0 66.769531 29.953125 66.769531 66.765625 0 34.609375-55.257813 100.867187-61.558594 108.316406-1.296875 1.527344-3.203125 2.410156-5.210937 2.410156zm0-163.839844c-29.285157 0-53.113282 23.828126-53.113282 53.113282 0 22.726562 34.550782 70.195312 53.113282 93.175781 18.566406-22.980469 53.113281-70.445313 53.113281-93.175781 0-29.285156-23.824219-53.113282-53.113281-53.113282zm0 83.257813c-18.816407 0-34.132813-15.316406-34.132813-34.136719 0-18.816406 15.316406-34.132812 34.132813-34.132812 18.820312 0 34.132812 15.316406 34.132812 34.132812 0 18.820313-15.3125 34.136719-34.132812 34.136719zm0-54.613281c-11.292969 0-20.480469 9.183594-20.480469 20.476562 0 11.292969 9.1875 20.480469 20.480469 20.480469 11.292968 0 20.480468-9.1875 20.480468-20.480469 0-11.292968-9.1875-20.476562-20.480468-20.476562zm0 0"/></svg>