<svg xmlns="http://www.w3.org/2000/svg" width="40" height="40" viewBox="0 0 40 40">
  <g id="qute" transform="translate(-663 -2154)">
    <circle id="Ellipse_7" data-name="Ellipse 7" cx="20" cy="20" r="20" transform="translate(663 2154)" fill="#f15a27"/>
    <g id="two-quotes" transform="translate(674 2161)">
      <g id="Group_77" data-name="Group 77" transform="translate(0 5)">
        <path id="Path_52" data-name="Path 52" d="M3.453,5A3.5,3.5,0,0,0,0,8.553a3.5,3.5,0,0,0,3.453,3.553c3.453,0,1.151,6.869-3.453,6.869v1.658C8.216,20.632,11.437,5,3.453,5ZM13.4,5A3.5,3.5,0,0,0,9.948,8.553,3.5,3.5,0,0,0,13.4,12.106c3.453,0,1.151,6.869-3.453,6.869v1.658C18.164,20.632,21.384,5,13.4,5Z" transform="translate(0 -5)" fill="#fff"/>
      </g>
    </g>
  </g>
</svg>
