<svg xmlns="http://www.w3.org/2000/svg" width="21" height="21" viewBox="0 0 21 21">
  <g id="room" transform="translate(-124 138)">
    <rect id="Rectangle_50" data-name="Rectangle 50" width="21" height="21" transform="translate(124 -138)" fill="none"/>
    <g id="isometric" transform="translate(124.999 -137)">
      <path id="Path_19" data-name="Path 19" d="M16.467,42.747H13.7V38.893a.286.286,0,1,0-.572,0V42.9l-3.4,2.874V39.2l3.4-2.874v1.253a.286.286,0,0,0,.572,0v-1.87a.29.29,0,0,0-.286-.286H6.373V32.349a.286.286,0,1,0-.572,0v3.225L1.934,38.846a.29.29,0,0,0-.1.218v7.208L.085,48.021a.286.286,0,0,0,.4.4l1.748-1.748H9.445a.291.291,0,0,0,.185-.068l3.889-3.29h2.948a.286.286,0,1,0,0-.572ZM9.159,46.105H2.4V39.351H9.159ZM6.192,35.993h6.441L9.34,38.778H2.9Zm0,0" transform="translate(0 -30.841)" fill="#707070"/>
      <path id="Path_20" data-name="Path 20" d="M166.086,1.306v.812a.286.286,0,1,0,.572,0v-.8l.8-.833a.286.286,0,1,0-.413-.4l-.656.685L165.829.1a.286.286,0,1,0-.44.367Zm0,0" transform="translate(-159.025 0)" fill="#707070"/>
      <path id="Path_21" data-name="Path 21" d="M40.654,448.879H39.433a.286.286,0,1,0,0,.572h.677l-.951,1.383a.289.289,0,0,0,.236.448H40.54a.286.286,0,1,0,0-.572h-.6l.951-1.383A.289.289,0,0,0,40.654,448.879Zm0,0" transform="translate(-37.62 -431.783)" fill="#707070"/>
      <path id="Path_22" data-name="Path 22" d="M458.314,289.765l.611-.733a.286.286,0,1,0-.44-.366l-.543.652-.543-.652a.286.286,0,1,0-.44.366l.611.733-.611.733a.286.286,0,0,0,.44.366l.543-.652.543.652a.286.286,0,0,0,.44-.366Zm0,0" transform="translate(-439.49 -277.573)" fill="#707070"/>
    </g>
  </g>
</svg>
