<svg height="425pt" viewBox="-87 0 425 425.32523" width="425pt" xmlns="http://www.w3.org/2000/svg"><path d="m117.035156 425.324219c-6.339844 0-12.308594-2.984375-15.714844-4.683594-10.253906-5.128906-17.667968-24.027344-27.019531-50.167969-2.5-6.988281-4.859375-13.589844-6.464843-16.796875-6.480469-12.957031-6.808594-85.933593-6.808594-100.433593v-21.515626l-9.753906-9.753906c-8.351563-5.894531-32.851563-24.421875-32.851563-38.722656 0-7.078125-10.105469-27.125-17.289063-39.089844-1.871093-3.121094-.957031-7.160156 2.0625-9.1875 4.425782-2.980468 16.375-12.921875 18.398438-23.054687 2.347656-11.726563.714844-42.171875-.113281-52.914063-.199219-2.632812 1.128906-5.148437 3.421875-6.453125 13.285156-7.59375 45.246094-25.246093 55.125-25.246093 6.449218 0 15.183594 3.105468 23.960937 8.519531 3.214844 1.980469 4.207031 6.1875 2.234375 9.394531-1.988281 3.207031-6.195312 4.207031-9.394531 2.234375-7.273437-4.488281-13.679687-6.496094-16.800781-6.496094-4.707032.28125-26.0625 10.921875-44.632813 21.339844.707031 10.914063 2.195313 39.28125-.410156 52.300781-2.460937 12.308594-12.714844 22.515625-19.066406 27.816406 5.710937 10.09375 16.160156 30.027344 16.160156 40.839844 0 4.5 13.121094 17.785156 27.519531 27.878906.324219.226563.632813.488282.910156.765626l12.175782 12.175781c1.28125 1.277343 2 3.011719 2 4.824219v24.347656c0 41.09375 2.007812 87.613281 5.367187 94.328125 1.972657 3.945312 4.355469 10.601562 7.105469 18.300781 4.585938 12.820312 14.128906 39.480469 20.273438 42.554688 3.730468 1.867187 8.988281 4.179687 11.382812 2.859374 1.066406-.585937 4.652344-3.664062 6.15625-18.734374 3.054688-30.574219 6.128906-43.066407 6.261719-43.585938.234375-.945312.675781-1.839844 1.285156-2.605469l22.234375-27.785156-2.21875-8.886719c-.515625-2.039062-.054688-4.203125 1.238281-5.863281s3.28125-2.625 5.378907-2.625c-.039063 0 7.300781-.332031 17.207031-7.765625 2.460937-1.839844 2.679687-5.140625 2.613281-12.234375-.085938-9.21875-.210938-21.839844 12.914062-30.59375 11.4375-7.628906 18.246094-11.769531 21.824219-13.832031 2.140625-15.488282 10.410157-70.460938 21.929688-87.742188 1.878906-2.816406 1.644531-4.625 1.234375-5.886718-2.046875-6.265626-13.816406-12.371094-19.195313-14.34375-.191406-.074219-8.144531-3.253907-17.851562-7.1875-3.5-1.414063-5.179688-5.394532-3.769531-8.886719 1.414062-3.5 5.414062-5.1875 8.886718-3.765625 9.683594 3.917968 17.609375 7.085937 17.609375 7.085937 2.117188.765625 22.617188 8.585938 27.292969 22.832031 1.34375 4.121094 1.953125 10.535157-2.847656 17.726563-9.261719 13.894531-17.726563 66.320313-20.214844 85.347656-.292969 2.253907-1.6875 4.214844-3.714844 5.226563-.042968.019531-6.191406 3.171875-23.613281 14.785156-6.640625 4.429688-6.917969 10.140625-6.832031 19.101562.074218 7.625.167968 17.113282-8.074219 23.285157-6.632813 4.980469-12.566406 7.601562-17.03125 8.980469l1.300781 5.203124c.519532 2.066407.039063 4.257813-1.285156 5.925782l-23.367188 29.199218c-.832031 3.925782-3.226562 16.425782-5.605468 40.253907-1.601563 15.945312-5.78125 25.265625-13.160156 29.332031-2.738282 1.5-5.589844 2.074219-8.363282 2.074219zm0 0"/><path d="m157.960938 177.492188c-2.007813 0-3.914063-.886719-5.207032-2.410157-6.308594-7.449219-61.558594-73.710937-61.558594-108.316406 0-36.8125 29.953126-66.765625 66.765626-66.765625s66.765624 29.953125 66.765624 66.765625c0 34.605469-55.253906 100.867187-61.558593 108.316406-1.292969 1.523438-3.199219 2.410157-5.207031 2.410157zm0-163.839844c-29.285157 0-53.113282 23.828125-53.113282 53.113281 0 22.726563 34.550782 70.195313 53.113282 93.175781 18.558593-22.980468 53.113281-70.445312 53.113281-93.175781 0-29.285156-23.828125-53.113281-53.113281-53.113281zm0 83.253906c-18.820313 0-34.132813-15.3125-34.132813-34.132812 0-18.820313 15.3125-34.132813 34.132813-34.132813 18.820312 0 34.132812 15.3125 34.132812 34.132813 0 18.820312-15.3125 34.132812-34.132812 34.132812zm0-54.613281c-11.292969 0-20.480469 9.1875-20.480469 20.480469 0 11.292968 9.1875 20.480468 20.480469 20.480468 11.292968 0 20.480468-9.1875 20.480468-20.480468 0-11.292969-9.1875-20.480469-20.480468-20.480469zm0 0"/></svg>