<svg xmlns="http://www.w3.org/2000/svg" width="12.999" height="12.442" viewBox="0 0 12.999 12.442">
  <g id="star" transform="translate(-411.5 -157)">
    <path id="Path_60" data-name="Path 60" d="M59.784,19.3l-3.4-.315-1.349-3.132a.272.272,0,0,0-.5,0l-1.349,3.132-3.4.315a.272.272,0,0,0-.154.475L52.2,22.029l-.75,3.327a.272.272,0,0,0,.4.294l2.932-1.741,2.932,1.741a.272.272,0,0,0,.4-.294l-.75-3.327,2.562-2.251A.272.272,0,0,0,59.784,19.3Z" transform="translate(363.21 141.428)" fill="#ffdc64"/>
    <g id="Group_133" data-name="Group 133" transform="translate(411.5 157)">
      <path id="Path_61" data-name="Path 61" d="M89.759,11.148c.173.24.662,1.273.941,1.875a.094.094,0,0,1-.151.108c-.482-.456-1.306-1.247-1.479-1.487a.424.424,0,1,1,.689-.5Z" transform="translate(-86.731 -10.971)" fill="#fff082"/>
      <path id="Path_62" data-name="Path 62" d="M356.235,11.148c-.173.24-.662,1.273-.941,1.875a.094.094,0,0,0,.151.108c.482-.456,1.306-1.247,1.479-1.487a.424.424,0,1,0-.689-.5Z" transform="translate(-346.264 -10.971)" fill="#fff082"/>
      <path id="Path_63" data-name="Path 63" d="M416.824,283.048c-.282-.092-1.414-.244-2.072-.327a.094.094,0,0,0-.058.176c.581.321,1.585.866,1.866.958a.424.424,0,0,0,.263-.807Z" transform="translate(-404.118 -275.821)" fill="#fff082"/>
      <path id="Path_64" data-name="Path 64" d="M.293,283.048c.282-.092,1.414-.244,2.072-.327a.094.094,0,0,1,.058.176c-.581.321-1.585.866-1.866.958a.424.424,0,0,1-.263-.807Z" transform="translate(0 -275.821)" fill="#fff082"/>
      <path id="Path_65" data-name="Path 65" d="M239.794,401.851c0-.3.207-1.42.332-2.071a.094.094,0,0,1,.186,0c.125.652.332,1.775.332,2.071a.424.424,0,0,1-.849,0Z" transform="translate(-233.706 -389.833)" fill="#fff082"/>
    </g>
    <path id="Path_66" data-name="Path 66" d="M55.53,16.995l-.49-1.139a.272.272,0,0,0-.5,0l-1.349,3.132-3.4.315a.272.272,0,0,0-.154.475L52.2,22.029l-.75,3.327a.272.272,0,0,0,.4.294l.39-.232A21.123,21.123,0,0,1,55.53,16.995Z" transform="translate(363.21 141.428)" fill="#ffc850"/>
  </g>
</svg>
