<svg xmlns="http://www.w3.org/2000/svg" width="44" height="44" viewBox="0 0 44 44">
  <g id="trust_" data-name="trust " transform="translate(-209 203)">
    <rect id="Rectangle_51" data-name="Rectangle 51" width="44" height="44" transform="translate(209 -203)" fill="none"/>
    <g id="real-estate" transform="translate(144.593 -200)">
      <g id="Group_59" data-name="Group 59" transform="translate(72.407 0)">
        <g id="Group_58" data-name="Group 58" transform="translate(0 0)">
          <path style="fill:#fff;" id="Path_27" data-name="Path 27" d="M98.912,12.532a2.656,2.656,0,0,0-1.179-4.4A1.569,1.569,0,0,1,96.64,6.239a2.656,2.656,0,0,0-3.22-3.22,1.568,1.568,0,0,1-1.894-1.094,2.656,2.656,0,0,0-4.4-1.179,1.569,1.569,0,0,1-2.188,0,2.656,2.656,0,0,0-4.4,1.179A1.569,1.569,0,0,1,78.647,3.02a2.656,2.656,0,0,0-3.22,3.22,1.569,1.569,0,0,1-1.094,1.895,2.656,2.656,0,0,0-1.179,4.4,1.569,1.569,0,0,1,0,2.188,2.656,2.656,0,0,0,1.179,4.4,1.569,1.569,0,0,1,1.094,1.895,2.658,2.658,0,0,0,2.411,3.295L76.16,27.355a.541.541,0,0,0,.948.521l2.03-3.687.029,0a1.562,1.562,0,0,1,.2.031h.006c.033.007.065.016.1.026l.027.008q.048.015.094.033l.022.009a1.575,1.575,0,0,1,.388.226l.011.009c.027.022.053.045.078.068l.018.017c.025.024.049.048.072.073l.009.01a1.565,1.565,0,0,1,.119.15l.023.033c.013.02.025.041.038.061s.024.04.035.061.02.037.029.056.025.053.036.08.014.031.02.047c.017.044.033.089.046.135a2.635,2.635,0,0,0,1.866,1.833h0c.052.014.1.026.157.037l.052.01.108.018.058.008.108.011.053,0c.052,0,.1.005.157.005h0c.044,0,.089,0,.133,0l.036,0,.1-.007.047-.006.084-.011.051-.009.079-.015.053-.012.075-.018.054-.014.073-.022.053-.017.072-.026.052-.02.072-.03.05-.022.073-.035.047-.023.078-.042.039-.022q.056-.033.111-.068l0,0,.881,1.6-4.359,7.92-1.339-4.382a.693.693,0,0,0-.851-.469l-4.419,1.213,1.023-1.858a.541.541,0,0,0-.947-.521L73.1,32.914a.757.757,0,0,0,.054.836.684.684,0,0,0,.73.236l4.908-1.348,1.487,4.868A.684.684,0,0,0,80.87,38a.713.713,0,0,0,.073,0,.763.763,0,0,0,.662-.405l4.428-8.046,4.428,8.046a.762.762,0,0,0,.662.4.716.716,0,0,0,.073,0,.684.684,0,0,0,.589-.491l1.487-4.868,4.908,1.348a.684.684,0,0,0,.73-.236.757.757,0,0,0,.054-.836l-4.737-8.607a2.658,2.658,0,0,0,2.411-3.295,1.569,1.569,0,0,1,1.094-1.895,2.656,2.656,0,0,0,1.179-4.4A1.569,1.569,0,0,1,98.912,12.532ZM97.619,32.709,93.2,31.5a.694.694,0,0,0-.852.469l-1.339,4.382L85.418,26.188h0c.033-.014.067-.027.1-.039l.011,0a1.578,1.578,0,0,1,1,0l0,0a1.565,1.565,0,0,1,.271.121l.053.031.054.035.068.049.041.031c.036.029.072.06.106.093a2.7,2.7,0,0,0,.338.276,2.63,2.63,0,0,0,2.194.379q.085-.023.168-.051a2.633,2.633,0,0,0,1.7-1.783c.013-.047.029-.092.046-.136.006-.015.013-.03.019-.045s.024-.055.037-.082.018-.037.028-.055.023-.041.036-.062.024-.041.037-.061l.024-.034a1.567,1.567,0,0,1,.119-.149l.009-.01c.023-.025.048-.049.072-.073l.017-.016c.026-.024.052-.046.079-.068l.011-.009a1.575,1.575,0,0,1,.388-.226l.022-.009q.046-.018.094-.033l.028-.008c.032-.009.064-.018.1-.026l.008,0a1.575,1.575,0,0,1,.2-.03l.031,0Zm.9-15.737a1.562,1.562,0,0,1-1.087,1.106,2.646,2.646,0,0,0-1.845,3.2,1.574,1.574,0,0,1-1.909,1.909,2.645,2.645,0,0,0-2.971,1.3h0q-.026.048-.05.1l-.009.019c-.014.028-.027.056-.039.085l-.016.038c-.01.024-.02.048-.03.072s-.015.041-.023.062-.013.036-.019.054c-.013.04-.026.08-.038.121a1.562,1.562,0,0,1-1.106,1.087q-.05.013-.1.023a1.561,1.561,0,0,1-1.4-.412q-.047-.045-.095-.087l-.06-.05-.036-.03c-.03-.024-.06-.047-.091-.069l-.005,0a2.641,2.641,0,0,0-3.236.092h0l-.009.008-.072.061c-.029.026-.058.052-.085.078a1.56,1.56,0,0,1-1.3.429,1.618,1.618,0,0,1-.2-.041,1.562,1.562,0,0,1-1.106-1.087q-.018-.061-.038-.121c-.006-.017-.012-.034-.019-.052s-.015-.043-.023-.064-.019-.047-.029-.071l-.017-.039c-.012-.028-.026-.056-.039-.084l-.009-.02a2.645,2.645,0,0,0-3.022-1.4,1.574,1.574,0,0,1-1.909-1.909,2.646,2.646,0,0,0-1.845-3.2,1.574,1.574,0,0,1-.7-2.607,2.646,2.646,0,0,0,0-3.69,1.574,1.574,0,0,1,.7-2.607,2.646,2.646,0,0,0,1.845-3.2,1.574,1.574,0,0,1,1.909-1.909,2.646,2.646,0,0,0,3.2-1.845,1.574,1.574,0,0,1,2.607-.7,2.646,2.646,0,0,0,3.69,0,1.574,1.574,0,0,1,2.607.7,2.646,2.646,0,0,0,3.2,1.845A1.574,1.574,0,0,1,95.59,5.978a2.646,2.646,0,0,0,1.845,3.2,1.574,1.574,0,0,1,.7,2.607,2.646,2.646,0,0,0,0,3.69A1.563,1.563,0,0,1,98.522,16.973Z" transform="translate(-72.407 0)"/>
        </g>
      </g>
      <g id="Group_61" data-name="Group 61" transform="translate(75.467 3.06)">
        <g id="Group_60" data-name="Group 60" transform="translate(0)">
          <path style="fill:#fff;" id="Path_28" data-name="Path 28" d="M124.2,41.23A10.566,10.566,0,1,0,134.767,51.8,10.578,10.578,0,0,0,124.2,41.23Zm0,20.051a9.485,9.485,0,1,1,9.485-9.485A9.5,9.5,0,0,1,124.2,61.281Z" transform="translate(-113.635 -41.23)"/>
        </g>
      </g>
      <g id="Group_63" data-name="Group 63" transform="translate(78.447 5.807)">
        <g id="Group_62" data-name="Group 62" transform="translate(0)">
          <path style="fill:#fff;" id="Path_29" data-name="Path 29" d="M168.523,84.448l-1.886-1.767a.541.541,0,0,0-.739.789l1.886,1.767a.287.287,0,0,1-.393.419l-5.669-5.31a.541.541,0,0,0-.741,0l-5.632,5.306a.287.287,0,1,1-.394-.418l6.2-5.839a.288.288,0,0,1,.393,0l1.879,1.76a.541.541,0,0,0,.74-.789l-1.879-1.76a1.371,1.371,0,0,0-1.875,0l-6.2,5.839A1.369,1.369,0,0,0,156,86.522l.007,5.1a.871.871,0,0,0,.87.869h0l8.99-.013a.871.871,0,0,0,.869-.872l-.007-5.091a1.368,1.368,0,0,0,1.8-2.063ZM160.46,91.4l-.007-4.99,1.816,0,.007,4.99Zm2.9,0-.007-5.321a.751.751,0,0,0-.751-.75h0l-2.477,0a.751.751,0,0,0-.75.752l.007,5.321-2.294,0-.008-5.892,4.277-4.029,4.291,4.02.008,5.889Z" transform="translate(-153.783 -78.237)"/>
        </g>
      </g>
    </g>
  </g>
</svg>
